/* XPM */
static char *_a37a78c841e417aea7549714ad1ec38aTEcKWr2Ee23IsiT[] = {
/* columns rows colors chars-per-pixel */
"64 64 187 2 ",
"   c None",
".  c #010001",
"X  c #090406",
"o  c #0A0508",
"O  c #0E090C",
"+  c #050908",
"@  c #130506",
"#  c #11070C",
"$  c #110A0E",
"%  c #1C0B0D",
"&  c #180709",
"*  c #0C100F",
"=  c #060D12",
"-  c #0B0D11",
";  c #150C12",
":  c #190E16",
">  c #1D1415",
",  c #1F121B",
"<  c #1C1A1A",
"1  c #151716",
"2  c #06151F",
"3  c #2A0B0E",
"4  c #2C0E11",
"5  c #3A0E13",
"6  c #22131D",
"7  c #3C1216",
"8  c #391719",
"9  c #0D1C27",
"0  c #271622",
"q  c #291723",
"w  c #231E21",
"e  c #2B1926",
"r  c #2F1D29",
"t  c #331D2C",
"y  c #391E26",
"u  c #381F30",
"i  c #0F222E",
"p  c #11222E",
"a  c #19212C",
"s  c #112837",
"d  c #262229",
"f  c #35252B",
"g  c #2A302F",
"h  c #372130",
"j  c #3C2334",
"k  c #392D34",
"l  c #2D3030",
"z  c #41161A",
"x  c #43181C",
"c  c #481A1E",
"v  c #501A1F",
"b  c #4A1C21",
"n  c #511D21",
"m  c #601E24",
"M  c #4D2326",
"N  c #4E2F31",
"B  c #42263A",
"V  c #46283D",
"C  c #402437",
"Z  c #493C3D",
"A  c #523637",
"S  c #602A2F",
"D  c #622227",
"F  c #652D31",
"G  c #742B32",
"H  c #7B2E35",
"J  c #6E353C",
"K  c #1B3649",
"L  c #1D3C52",
"P  c #283847",
"I  c #4B2B41",
"U  c #453B45",
"Y  c #643643",
"T  c #28475C",
"R  c #3E526D",
"E  c #2A5471",
"W  c #285B7F",
"Q  c #265574",
"!  c #365D77",
"~  c #244963",
"^  c #4C4546",
"/  c #454646",
"(  c #524544",
")  c #585655",
"_  c #475155",
"`  c #605E5F",
"'  c #425763",
"]  c #635268",
"[  c #47617F",
"{  c #72657E",
"}  c #767777",
"|  c #833239",
" . c #863D43",
".. c #8A3F45",
"X. c #884449",
"o. c #934249",
"O. c #9A474D",
"+. c #944A50",
"@. c #895358",
"#. c #92575C",
"$. c #A4434C",
"%. c #A64C59",
"&. c #8B5062",
"*. c #AD5F66",
"=. c #BD5B64",
"-. c #87696C",
";. c #836467",
":. c #8F6E70",
">. c #857A7A",
",. c #8B7E7E",
"<. c #937172",
"1. c #AF6067",
"2. c #B16268",
"3. c #A0687B",
"4. c #AA7277",
"5. c #C06673",
"6. c #C0787F",
"7. c #D5767F",
"8. c #245C82",
"9. c #2C5F82",
"0. c #305F81",
"q. c #2B6085",
"w. c #386686",
"e. c #466B8A",
"r. c #46708E",
"t. c #4F7188",
"y. c #5B7E97",
"u. c #72728C",
"i. c #6F7D96",
"p. c #687E8A",
"a. c #A47E90",
"s. c #C57C83",
"d. c #CD7B82",
"f. c #D57981",
"g. c #69889E",
"h. c #788287",
"j. c #6B8CA1",
"k. c #7C96A9",
"l. c #8F8C8C",
"z. c #9F9F9F",
"x. c #BD9699",
"c. c #A9989A",
"v. c #8799AA",
"b. c #9F93A3",
"n. c #A09FA0",
"m. c #BF9FA2",
"M. c #9FA0AF",
"N. c #94ACB9",
"B. c #9AAAB7",
"V. c #B9A9AB",
"C. c #A6ABB5",
"Z. c #A1B3BE",
"A. c #BCB0B6",
"S. c #C88289",
"D. c #C5999D",
"F. c #DD949C",
"G. c #D19A9F",
"H. c #D78E97",
"J. c #E3989E",
"K. c #C49FA8",
"L. c #D59EA4",
"P. c #CEA6AD",
"I. c #C3B9BE",
"U. c #C1B7BD",
"Y. c #DCB3B6",
"T. c #D4B5B8",
"R. c #CCAAB1",
"E. c #E5B4B7",
"W. c #E6ADB2",
"Q. c #AFBEC6",
"!. c #AFC2C9",
"~. c #BEC9CD",
"^. c #BFCDD1",
"/. c #C0C6CB",
"(. c #C6C8CB",
"). c #D3C5C6",
"_. c #D7C6C8",
"`. c #D8CACC",
"'. c #CCD3D5",
"]. c #D6D3D4",
"[. c #DCD3D4",
"{. c #D8D8D8",
"}. c #E6C7C9",
"|. c #E6C6C8",
" X c #E2CFD0",
".X c #E3D4D5",
"XX c #E2D9D9",
/* pixels */
"                                                                                                                                ",
"                                                                                                                                ",
"                                                                                                                                ",
"                                                                                                                                ",
"                                                                                                                                ",
"                                                                                                                                ",
"                                                                                                                                ",
"                                                                                                                                ",
"                                                                                                                                ",
"                                                                                                                                ",
"                                                                                                                                ",
"                                                                                                                                ",
"                                                                                                                                ",
"                                                                                                                                ",
"                                                                                                                                ",
"                                                                                                                                ",
"                                                                                                                                ",
"                                                                                                                                ",
"                                                                                                                                ",
"                                                                                                                                ",
"                                                          . . . . . . . . . .                                                   ",
"                                                        . . . . . . . . . . . .                                                 ",
"                                                        % % 3 > < < < > > % % %                                                 ",
"                                                      3 7 c M N Z ^ ^ Z N M c 7 3                                               ",
"                                  . . . . . . . . . @ 5 D G | #.-.>.>.-.@. .H n 7 @ . . . . .                                   ",
"                                . . . . . . . . . . % c H $.2.6.D.V.V.x.6.=.$.| c 3 . . . . . .                                 ",
"                                o o X X . . X + * 1 f J O.=.7.F.Y.)._.Y.J.7.=.O.S 8 % X X . . .                                 ",
"                              o ; ; ; O X X + 1 l / ) ;.4.S.J.W.|..X.X}.W.J.f.*.X.S x 3 & X . . .                               ",
"                          . X ; , 0 6 ; o o 1 g ) } l.c.V.L.Y.|. X{.XX.X}.E.L.s.1.o.G v 4 @ . . . . .                           ",
"                        . . o : q t t 0 # o 1 / } z.A.).).).).].[.].].].]._.T.G.6.=.$.G x % . . . . . .                         ",
"                        X o ; , r j j q # O < ( >.V.).[.[.].].'.(.(.(.~.^.(.I.P.H.7.=.o.M : . . . X o o                         ",
"                      O $ ; , e h j j e ; O , U :.x.E. X.X{.'.^.Q.Q.B.N.N.N.C.V.L.F.6.#.N 6 . . o ; ; ; $                       ",
"                  . o ; , 0 t h k B j q ; o 6 N #.d.J.E.}.].(.Q.N.k.j.j.j.j.k.M.U.P.D.<.( > X X ; 6 0 6 ; o .                   ",
"                . . o ; 0 t j B V B j q ; @ % M ..=.f.J.E._.~.Q.k.y.r.e.w.r.y.v.Z.A.V.,.( 6 + @ 6 f t 0 : o . .                 ",
"                . . o : q j V I I V j 0 ; + % z G $.=.f.L.T.U.M.j.e.0.8.W 0.e.g.v.C.M.} ^ w $ 6 e j j e : o . .                 ",
"                . . o : e j V I I I j e ; o @ 3 b G ..*.s.L.K.b.i.w.9.8.8.9.w.e.h.h.} ` / d 6 6 u C j r : o . .                 ",
"                . . o : e j I I I I j q ; o o & 4 x F X.2.f.S.a.u.e.q.8.8.9.! ! ' _ / Z k h t u C B C e : o . .                 ",
"                . . o ; e j V I I B j e : o . . X & 8 F O.=.2.a.{ [ w.8.q.0.E T P a d 6 r h j B V V j e : o . .                 ",
"                . . o : e j B B B j u 0 ; o . . . . : n | $.%.&.] R E Q E E ~ L 9 = o % 0 t j B B B C e : o . .                 ",
"                . . o : e j B B j r 0 , ; o . . . . @ 7 D H J Y U P L L L L K s 9 . . O : q t j B B j e : o . .                 ",
"                . . o : e j B h e , ; ; O             4 z c b y r a p p p p i 9 =     X O : 6 e j B j e : o . .                 ",
"                . . o : e j j t , ; X X                 % % % $ - - = = = = = =         X o $ , t j j e : o . .                 ",
"                . . o : e t t 0 ; X . .                 . . . . . . . . . . . .         . . o : 0 t t q : o . .                 ",
"                  . o ; 6 0 6 > - X . .                   . . . . . . . . . .           . . . O > 6 0 6 ; o .                   ",
"                      $ ; ; ; O o . . .                                                 . . . o O ; ; ; $                       ",
"                        o o X X . . . .                                                 . . . . X X o o                         ",
"                        . . . . . . . .                                                 . . . . . . . .                         ",
"                          . . . . . .                                                     . . . . . .                           ",
"                                                                                                                                ",
"                                                                                                                                ",
"                                                                                                                                ",
"                                                                                                                                ",
"                                                                                                                                ",
"                                                                                                                                ",
"                                                                                                                                ",
"                                                                                                                                ",
"                                                                                                                                ",
"                                                                                                                                ",
"                                                                                                                                ",
"                                                                                                                                ",
"                                                                                                                                ",
"                                                                                                                                ",
"                                                                                                                                ",
"                                                                                                                                "
};
