/* XPM */
static char *result[] = {
/* columns rows colors chars-per-pixel */
"64 64 183 2 ",
"   c #000000",
".  c #090506",
"X  c #0A0608",
"o  c #04090B",
"O  c #06090A",
"+  c #130506",
"@  c #11090E",
"#  c #1C0B0D",
"$  c #120608",
"%  c #0C100F",
"&  c #060D12",
"*  c #0D0D11",
"=  c #150C13",
"-  c #1A0F17",
";  c #061219",
":  c #1C1216",
">  c #1B1018",
",  c #1C1A1A",
"<  c #141717",
"1  c #290C0E",
"2  c #2E0F11",
"3  c #3A0E13",
"4  c #22141D",
"5  c #3B1216",
"6  c #3A1719",
"7  c #0E1E28",
"8  c #261621",
"9  c #221F21",
"0  c #2D1A27",
"q  c #2E1B28",
"w  c #2C1724",
"e  c #331E2D",
"r  c #391E26",
"t  c #0E222F",
"y  c #11222E",
"u  c #1C242C",
"i  c #0F2330",
"p  c #102330",
"a  c #29252A",
"s  c #33232A",
"d  c #3B2234",
"f  c #392833",
"g  c #2E3130",
"h  c #41171A",
"j  c #491A1E",
"k  c #43181C",
"l  c #511A1F",
"z  c #491C21",
"x  c #591F24",
"c  c #601E24",
"v  c #4D2226",
"b  c #4E2F31",
"n  c #4D3C3D",
"m  c #523134",
"M  c #602A2F",
"N  c #652328",
"B  c #672E32",
"V  c #7A2D35",
"C  c #752B32",
"Z  c #6E353C",
"A  c #193345",
"S  c #1D3D52",
"D  c #273847",
"F  c #453C44",
"G  c #533F41",
"H  c #643643",
"J  c #28475C",
"K  c #3E526D",
"L  c #2A5471",
"P  c #285B7F",
"I  c #265675",
"U  c #365E79",
"Y  c #244861",
"T  c #494647",
"R  c #585655",
"E  c #4E4F51",
"W  c #435966",
"Q  c #635268",
"!  c #47617F",
"~  c #636062",
"^  c #72657E",
"/  c #777878",
"(  c #833339",
")  c #863D43",
"_  c #883E44",
"`  c #864349",
"'  c #924149",
"]  c #9A474D",
"[  c #944A50",
"{  c #8B5459",
"}  c #91575C",
"|  c #A4434C",
" . c #A64C59",
".. c #8B5062",
"X. c #AB5E64",
"o. c #BD5B65",
"O. c #87696C",
"+. c #836467",
"@. c #916F72",
"#. c #8A7E7E",
"$. c #85797A",
"%. c #AF6067",
"&. c #B16268",
"*. c #A0687B",
"=. c #AA7277",
"-. c #C06673",
";. c #C0787F",
":. c #D5767F",
">. c #245C82",
",. c #2C5F82",
"<. c #305F81",
"1. c #2C6185",
"2. c #276086",
"3. c #386686",
"4. c #466B8A",
"5. c #46708E",
"6. c #507289",
"7. c #5B7E97",
"8. c #72728C",
"9. c #6F7D96",
"0. c #A47E90",
"q. c #C47C82",
"w. c #CC7A82",
"e. c #D57981",
"r. c #6A808C",
"t. c #6A889E",
"y. c #7B858A",
"u. c #6B8CA1",
"i. c #7C96A9",
"p. c #8F8C8C",
"a. c #A59C9D",
"s. c #BD9699",
"d. c #889AAA",
"f. c #9F93A3",
"g. c #BF9FA2",
"h. c #9DA3B1",
"j. c #94ACB9",
"k. c #99ADB9",
"l. c #A1A0A1",
"z. c #B9A9AB",
"x. c #A5ACB4",
"c. c #A9ACB8",
"v. c #A1B3BE",
"b. c #BCB0B6",
"n. c #C88289",
"m. c #C5999D",
"M. c #DD949C",
"N. c #D1999E",
"B. c #D78E97",
"V. c #E3979D",
"C. c #E2999F",
"Z. c #C49FA8",
"A. c #D79EA2",
"S. c #CEA6AD",
"D. c #D2A3AA",
"F. c #C3B9BE",
"G. c #C1B7BD",
"H. c #DCB3B6",
"J. c #D3B5B8",
"K. c #CAACB5",
"L. c #E6ADB2",
"P. c #E2B4B7",
"I. c #E7B4B8",
"U. c #AFBEC6",
"Y. c #AFC2C9",
"T. c #BEC9CD",
"R. c #BFCDD1",
"E. c #C0C6CB",
"W. c #C6C8CB",
"Q. c #D3C5C6",
"!. c #D7C6C8",
"~. c #D8CACC",
"^. c #CCD3D5",
"/. c #D6D3D4",
"(. c #DCD3D4",
"). c #D8D8D8",
"_. c #E4C3C5",
"`. c #E6C7C9",
"'. c #E8C9CB",
"]. c #E2CFD0",
"[. c #E3D4D5",
"{. c #E2D9D9",
"}. c None",
/* pixels */
"}.}.}.}.}.}.}.}.}.}.}.}.}.}.}.}.}.}.}.}.}.}.}.}.}.}.}.}.}.}.}.}.}.}.}.}.}.}.}.}.}.}.}.}.}.}.}.}.}.}.}.}.}.}.}.}.}.}.}.}.}.}.}.}.",
"}.}.}.}.}.}.}.}.}.}.}.}.}.}.}.}.}.}.}.}.}.}.}.}.}.}.}.}.}.}.}.}.}.}.}.}.}.}.}.}.}.}.}.}.}.}.}.}.}.}.}.}.}.}.}.}.}.}.}.}.}.}.}.}.",
"}.}.}.}.}.}.}.}.}.}.}.}.}.}.}.}.}.}.}.}.}.}.}.}.}.}.}.}.}.}.}.}.}.}.}.}.}.}.}.}.}.}.}.}.}.}.}.}.}.}.}.}.}.}.}.}.}.}.}.}.}.}.}.}.",
"}.}.}.}.}.}.}.}.}.}.}.}.}.}.}.}.}.}.}.}.}.}.}.}.}.}.}.}.}.}.}.}.}.}.}.}.}.}.}.}.}.}.}.}.}.}.}.}.}.}.}.}.}.}.}.}.}.}.}.}.}.}.}.}.",
"}.}.}.}.}.}.}.}.}.}.}.}.}.}.}.}.}.}.}.}.}.}.}.}.}.}.}.}.}.}.}.}.}.}.}.}.}.}.}.}.}.}.}.}.}.}.}.}.}.}.}.}.}.}.}.}.}.}.}.}.}.}.}.}.",
"}.}.}.}.}.}.}.}.}.}.}.}.}.}.}.}.}.}.}.}.}.}.}.}.}.}.}.}.}.}.}.}.}.}.}.}.}.}.}.}.}.}.}.}.}.}.}.}.}.}.}.}.}.}.}.}.}.}.}.}.}.}.}.}.",
"}.}.}.}.}.}.}.}.}.}.}.}.}.}.}.}.}.}.}.}.}.}.}.}.}.}.}.}.}.}.}.}.}.}.}.}.}.}.}.}.}.}.}.}.}.}.}.}.}.}.}.}.}.}.}.}.}.}.}.}.}.}.}.}.",
"}.}.}.}.}.}.}.}.}.}.}.}.}.}.}.}.}.}.}.}.}.}.}.}.}.}.}.}.}.}.}.}.}.}.}.}.}.}.}.}.}.}.}.}.}.}.}.}.}.}.}.}.}.}.}.}.}.}.}.}.}.}.}.}.",
"}.}.}.}.}.}.}.}.}.}.}.}.}.}.}.}.}.}.}.}.}.}.}.}.}.}.}.}.}.}.}.}.}.}.}.}.}.}.}.}.}.}.}.}.}.}.}.}.}.}.}.}.}.}.}.}.}.}.}.}.}.}.}.}.",
"}.}.}.}.}.}.}.}.}.}.}.}.}.}.}.}.}.}.}.}.}.}.}.}.}.}.}.}.}.}.}.}.}.}.}.}.}.}.}.}.}.}.}.}.}.}.}.}.}.}.}.}.}.}.}.}.}.}.}.}.}.}.}.}.",
"}.}.}.}.}.}.}.}.}.}.}.}.}.}.}.}.}.}.}.}.}.}.}.}.}.}.}.}.}.}.}.}.}.}.}.}.}.}.}.}.}.}.}.}.}.}.}.}.}.}.}.}.}.}.}.}.}.}.}.}.}.}.}.}.",
"}.}.}.}.}.}.}.}.}.}.}.}.}.}.}.}.}.}.}.}.}.}.}.}.}.}.}.}.}.}.}.}.}.}.}.}.}.}.}.}.}.}.}.}.}.}.}.}.}.}.}.}.}.}.}.}.}.}.}.}.}.}.}.}.",
"}.}.}.}.}.}.}.}.}.}.}.}.}.}.}.}.}.}.}.}.}.}.}.}.}.}.}.}.}.}.}.}.}.}.}.}.}.}.}.}.}.}.}.}.}.}.}.}.}.}.}.}.}.}.}.}.}.}.}.}.}.}.}.}.",
"}.}.}.}.}.}.}.}.}.}.}.}.}.}.}.}.}.}.}.}.}.}.}.}.}.}.}.}.}.}.}.}.}.}.}.}.}.}.}.}.}.}.}.}.}.}.}.}.}.}.}.}.}.}.}.}.}.}.}.}.}.}.}.}.",
"}.}.}.}.}.}.}.}.}.}.}.}.}.}.}.}.}.}.}.}.}.}.}.}.}.}.}.}.}.}.}.}.}.}.}.}.}.}.}.}.}.}.}.}.}.}.}.}.}.}.}.}.}.}.}.}.}.}.}.}.}.}.}.}.",
"}.}.}.}.}.}.}.}.}.}.}.}.}.}.}.}.}.}.}.}.}.}.}.}.}.}.}.}.}.}.}.}.}.}.}.}.}.}.}.}.}.}.}.}.}.}.}.}.}.}.}.}.}.}.}.}.}.}.}.}.}.}.}.}.",
"}.}.}.}.}.}.}.}.}.}.}.}.}.}.}.}.}.}.}.}.}.}.}.}.}.}.}.}.}.                    }.}.}.}.}.}.}.}.}.}.}.}.}.}.}.}.}.}.}.}.}.}.}.}.}.",
"}.}.}.}.}.}.}.}.}.}.}.}.}.}.}.}.}.}.}.}.}.}.}.}.}.}.}.}.                        }.}.}.}.}.}.}.}.}.}.}.}.}.}.}.}.}.}.}.}.}.}.}.}.",
"}.}.}.}.}.}.}.}.}.}.}.}.}.}.}.}.}.}.}.}.}.}.}.}.}.}.}.}.# # # : 4 , , , : # 1 # }.}.}.}.}.}.}.}.}.}.}.}.}.}.}.}.}.}.}.}.}.}.}.}.",
"}.}.}.}.}.}.}.}.}.}.}.}.}.}.}.}.}.}.}.}.}.}.}.}.}.}.}.1 h j z m n T T n b v j 5 2 }.}.}.}.}.}.}.}.}.}.}.}.}.}.}.}.}.}.}.}.}.}.}.",
"}.}.}.}.}.}.}.}.}.}.}.}.}.}.}.}.}.}.}.}.}.          + 5 c C ) { O.$.$.O.} _ V c 5 $   }.}.}.}.}.}.}.}.}.}.}.}.}.}.}.}.}.}.}.}.}.",
"}.}.}.}.}.}.}.}.}.}.}.}.}.}.}.}.}.}.}.}.            # j V | o.;.s.z.z.s.=.o.| V j #     }.}.}.}.}.}.}.}.}.}.}.}.}.}.}.}.}.}.}.}.",
"}.}.}.}.}.}.}.}.}.}.}.}.}.}.}.}.}.}.}.}.      O % , g B [ -.:.M.H.!.!.H.V.:.o.' M 6 # $ }.}.}.}.}.}.}.}.}.}.}.}.}.}.}.}.}.}.}.}.",
"}.}.}.}.}.}.}.}.}.}.}.}.}.}.}.}.}.}.}.      O , g T R +.=.w.M.L.`.[.[.'.I.V.w.X.` M j 5 1 }.}.}.}.}.}.}.}.}.}.}.}.}.}.}.}.}.}.}.",
"}.}.}.}.}.}.}.}.}.}.}.}.}.}.}.}.}.          < g E / p.a.g.D.H._.].{.{.[.`.P.D.;.X.' V x 5 #   }.}.}.}.}.}.}.}.}.}.}.}.}.}.}.}.}.",
"}.}.}.}.}.}.}.}.}.}.}.}.}.}.}.}.            , T / l.b.F.Q.Q.!.~././././.~.!.J.N.w.o.| V j #     }.}.}.}.}.}.}.}.}.}.}.}.}.}.}.}.",
"}.}.}.}.}.}.}.}.}.}.}.}.}.}.}.}.X X .       4 T #.z.Q.(.(.).^.^.W.W.E.T.T.T.F.S.B.:.o._ v #     }.}.}.}.}.}.}.}.}.}.}.}.}.}.}.}.",
"}.}.}.}.}.}.}.}.}.}.}.}.}.}.}.@ = = = X   . 4 n @.g.P.'.[.).^.T.Y.v.k.j.j.j.x.K.A.M.;.{ m :       }.}.}.}.}.}.}.}.}.}.}.}.}.}.}.",
"}.}.}.}.}.}.}.}.}.}.}.}.}.  X = > 8 8 = X . 4 m } q.C.I.'.(.^.Y.j.i.u.t.t.u.d.h.b.J.m.@.T :           }.}.}.}.}.}.}.}.}.}.}.}.}.",
"}.}.}.}.}.}.}.}.}.}.}.}.    X - 0 e e , @ . - z _ o.:.V.P.~.T.v.i.t.5.3.3.5.7.d.c.F.z.#.T ,             }.}.}.}.}.}.}.}.}.}.}.}.",
"}.}.}.}.}.}.}.}.}.}.}.}.    X - q d d 0 = X = h C | o.w.A.J.F.h.t.4.1.P P 1.4.t.d.x.l./ E 4 X           }.}.}.}.}.}.}.}.}.}.}.}.",
"}.}.}.}.}.}.}.}.}.}.}.}.    X - q d d q - X $ 2 l C ' &.q.A.S.f.9.4.2.P P P 3.6.r.p./ ~ n s = X .       }.}.}.}.}.}.}.}.}.}.}.}.",
"}.}.}.}.}.}.}.}.}.}.}.}.    X > 0 d b q > X . + 2 6 M ` &.w.n.0.8.4.1.>.2.1.<.U W E T F f s 8 - @       }.}.}.}.}.}.}.}.}.}.}.}.",
"}.}.}.}.}.}.}.}.}.}.}.}.    X - 0 d d 0 - X     . # 6 B ] o.-.*.^ ! <.>.1.1.L J D u u 9 s d e 4 = X     }.}.}.}.}.}.}.}.}.}.}.}.",
"}.}.}.}.}.}.}.}.}.}.}.}.    X - 0 d d 0 > .         # x ( |  ...Q K L I L L J A 7 & X - 0 d d 0 - X     }.}.}.}.}.}.}.}.}.}.}.}.",
"}.}.}.}.}.}.}.}.}.}.}.}.    X - 0 d d 0 4 X         + h N V Z H F D S S S S A p ;   . @ 8 d d e > X     }.}.}.}.}.}.}.}.}.}.}.}.",
"}.}.}.}.}.}.}.}.}.}.}.}.    X - 0 d d 0 - X       }.}.2 h j z r q u y i p p 7 ; o   . = 0 d d 0 > X     }.}.}.}.}.}.}.}.}.}.}.}.",
"}.}.}.}.}.}.}.}.}.}.}.}.    X - 0 d d 0 - X     }.}.}.}.# # # = * & & & & & & O     X - q d d 0 - X     }.}.}.}.}.}.}.}.}.}.}.}.",
"}.}.}.}.}.}.}.}.}.}.}.}.    X > 0 d d 0 - X     }.}.}.}.                            X - q d d 0 - X     }.}.}.}.}.}.}.}.}.}.}.}.",
"}.}.}.}.}.}.}.}.}.}.}.}.    X - 0 d d 0 - X     }.}.}.}.}.                          X - q d d 0 - X     }.}.}.}.}.}.}.}.}.}.}.}.",
"}.}.}.}.}.}.}.}.}.}.}.}.    X - 0 d d 0 - X     }.}.}.}.}.}.}.}.}.}.}.}.}.}.}.      X > q d d 0 - X     }.}.}.}.}.}.}.}.}.}.}.}.",
"}.}.}.}.}.}.}.}.}.}.}.}.    X - 0 d d q - X     }.}.}.}.}.}.}.}.}.}.}.}.}.}.}.}.    X > q d d 0 - X     }.}.}.}.}.}.}.}.}.}.}.}.",
"}.}.}.}.}.}.}.}.}.}.}.}.    X - 0 d d 0 > X     }.}.}.}.}.}.}.}.}.}.}.}.}.}.}.}.    X > q d d 0 - X     }.}.}.}.}.}.}.}.}.}.}.}.",
"}.}.}.}.}.}.}.}.}.}.}.}.    X - 0 d d q > X     }.}.}.}.}.}.}.}.}.}.}.}.}.}.}.}.    X > q d d q - X     }.}.}.}.}.}.}.}.}.}.}.}.",
"}.}.}.}.}.}.}.}.}.}.}.}.    X - q d d q > X     }.}.}.}.}.}.}.}.}.}.}.}.}.}.}.}.    X > q d d q - X     }.}.}.}.}.}.}.}.}.}.}.}.",
"}.}.}.}.}.}.}.}.}.}.}.}.    X > q d d 0 > X     }.}.}.}.}.}.}.}.}.}.}.}.}.}.}.}.    X > q d d 0 > X     }.}.}.}.}.}.}.}.}.}.}.}.",
"}.}.}.}.}.}.}.}.}.}.}.}.    X - 0 e e 8 = .     }.}.}.}.}.}.}.}.}.}.}.}.}.}.}.}.    X = 8 e e 0 - X     }.}.}.}.}.}.}.}.}.}.}.}.",
"}.}.}.}.}.}.}.}.}.}.}.}.}.  X = > 8 8 > @ .     }.}.}.}.}.}.}.}.}.}.}.}.}.}.}.}.    . X > 8 8 4 = X   }.}.}.}.}.}.}.}.}.}.}.}.}.",
"}.}.}.}.}.}.}.}.}.}.}.}.}.}.}.@ = = = @ .       }.}.}.}.}.}.}.}.}.}.}.}.}.}.}.}.      X @ = = = X }.}.}.}.}.}.}.}.}.}.}.}.}.}.}.",
"}.}.}.}.}.}.}.}.}.}.}.}.}.}.}.}.X X . .         }.}.}.}.}.}.}.}.}.}.}.}.}.}.}.}.        . X X X }.}.}.}.}.}.}.}.}.}.}.}.}.}.}.}.",
"}.}.}.}.}.}.}.}.}.}.}.}.}.}.}.}.                }.}.}.}.}.}.}.}.}.}.}.}.}.}.}.}.                }.}.}.}.}.}.}.}.}.}.}.}.}.}.}.}.",
"}.}.}.}.}.}.}.}.}.}.}.}.}.}.}.}.}.            }.}.}.}.}.}.}.}.}.}.}.}.}.}.}.}.}.}.            }.}.}.}.}.}.}.}.}.}.}.}.}.}.}.}.}.",
"}.}.}.}.}.}.}.}.}.}.}.}.}.}.}.}.}.}.}.}.}.}.}.}.}.}.}.}.}.}.}.}.}.}.}.}.}.}.}.}.}.}.}.}.}.}.}.}.}.}.}.}.}.}.}.}.}.}.}.}.}.}.}.}.",
"}.}.}.}.}.}.}.}.}.}.}.}.}.}.}.}.}.}.}.}.}.}.}.}.}.}.}.}.}.}.}.}.}.}.}.}.}.}.}.}.}.}.}.}.}.}.}.}.}.}.}.}.}.}.}.}.}.}.}.}.}.}.}.}.",
"}.}.}.}.}.}.}.}.}.}.}.}.}.}.}.}.}.}.}.}.}.}.}.}.}.}.}.}.}.}.}.}.}.}.}.}.}.}.}.}.}.}.}.}.}.}.}.}.}.}.}.}.}.}.}.}.}.}.}.}.}.}.}.}.",
"}.}.}.}.}.}.}.}.}.}.}.}.}.}.}.}.}.}.}.}.}.}.}.}.}.}.}.}.}.}.}.}.}.}.}.}.}.}.}.}.}.}.}.}.}.}.}.}.}.}.}.}.}.}.}.}.}.}.}.}.}.}.}.}.",
"}.}.}.}.}.}.}.}.}.}.}.}.}.}.}.}.}.}.}.}.}.}.}.}.}.}.}.}.}.}.}.}.}.}.}.}.}.}.}.}.}.}.}.}.}.}.}.}.}.}.}.}.}.}.}.}.}.}.}.}.}.}.}.}.",
"}.}.}.}.}.}.}.}.}.}.}.}.}.}.}.}.}.}.}.}.}.}.}.}.}.}.}.}.}.}.}.}.}.}.}.}.}.}.}.}.}.}.}.}.}.}.}.}.}.}.}.}.}.}.}.}.}.}.}.}.}.}.}.}.",
"}.}.}.}.}.}.}.}.}.}.}.}.}.}.}.}.}.}.}.}.}.}.}.}.}.}.}.}.}.}.}.}.}.}.}.}.}.}.}.}.}.}.}.}.}.}.}.}.}.}.}.}.}.}.}.}.}.}.}.}.}.}.}.}.",
"}.}.}.}.}.}.}.}.}.}.}.}.}.}.}.}.}.}.}.}.}.}.}.}.}.}.}.}.}.}.}.}.}.}.}.}.}.}.}.}.}.}.}.}.}.}.}.}.}.}.}.}.}.}.}.}.}.}.}.}.}.}.}.}.",
"}.}.}.}.}.}.}.}.}.}.}.}.}.}.}.}.}.}.}.}.}.}.}.}.}.}.}.}.}.}.}.}.}.}.}.}.}.}.}.}.}.}.}.}.}.}.}.}.}.}.}.}.}.}.}.}.}.}.}.}.}.}.}.}.",
"}.}.}.}.}.}.}.}.}.}.}.}.}.}.}.}.}.}.}.}.}.}.}.}.}.}.}.}.}.}.}.}.}.}.}.}.}.}.}.}.}.}.}.}.}.}.}.}.}.}.}.}.}.}.}.}.}.}.}.}.}.}.}.}.",
"}.}.}.}.}.}.}.}.}.}.}.}.}.}.}.}.}.}.}.}.}.}.}.}.}.}.}.}.}.}.}.}.}.}.}.}.}.}.}.}.}.}.}.}.}.}.}.}.}.}.}.}.}.}.}.}.}.}.}.}.}.}.}.}.",
"}.}.}.}.}.}.}.}.}.}.}.}.}.}.}.}.}.}.}.}.}.}.}.}.}.}.}.}.}.}.}.}.}.}.}.}.}.}.}.}.}.}.}.}.}.}.}.}.}.}.}.}.}.}.}.}.}.}.}.}.}.}.}.}."
};
