/* XPM */
static char *result[] = {
/* columns rows colors chars-per-pixel */
"64 64 189 2 ",
"   c #010001",
".  c #080507",
"X  c #0A0608",
"o  c #0F090D",
"O  c #040408",
"+  c #120506",
"@  c #110A0E",
"#  c #1D0C0D",
"$  c #10070D",
"%  c #060D12",
"&  c #0D0C10",
"*  c #150C13",
"=  c #1A0F16",
"-  c #1A0F18",
";  c #1D1415",
":  c #1C1119",
">  c #1D1B1C",
",  c #1A1816",
"<  c #08161F",
"1  c #290B0D",
"2  c #220F13",
"3  c #2B0E10",
"4  c #390E11",
"5  c #21131C",
"6  c #29141C",
"7  c #3B1216",
"8  c #3E151A",
"9  c #37181B",
"0  c #0D1C27",
"q  c #261621",
"w  c #211E21",
"e  c #2C1A26",
"r  c #2E1B28",
"t  c #2B1723",
"y  c #341925",
"u  c #331E2C",
"i  c #391E26",
"p  c #381F30",
"a  c #0F232F",
"s  c #11222E",
"d  c #1C242C",
"f  c #122837",
"g  c #2B252A",
"h  c #34252B",
"j  c #372130",
"k  c #3C2334",
"l  c #342C34",
"z  c #3D3B3F",
"x  c #491B1F",
"c  c #471A1E",
"v  c #4B1D22",
"b  c #431B22",
"n  c #5F1E24",
"m  c #4D2226",
"M  c #4F2428",
"N  c #5D2129",
"B  c #4E2F31",
"V  c #42263A",
"C  c #45283C",
"Z  c #402437",
"A  c #4E3C3D",
"S  c #513133",
"D  c #523E3F",
"F  c #612127",
"G  c #612A2F",
"H  c #642C31",
"J  c #7A2E35",
"K  c #603639",
"L  c #78333C",
"P  c #3F403E",
"I  c #1B3649",
"U  c #1D3C52",
"Y  c #283847",
"T  c #473849",
"R  c #643643",
"E  c #28465B",
"W  c #3E526D",
"Q  c #2B5471",
"!  c #285B7F",
"~  c #265574",
"^  c #365C77",
"/  c #244963",
"(  c #444344",
")  c #4C4546",
"_  c #4A494A",
"`  c #474B4B",
"'  c #5D595A",
"]  c #4C4D4F",
"[  c #425662",
"{  c #635268",
"}  c #47617F",
"|  c #72657E",
" . c #787979",
".. c #636463",
"X. c #803137",
"o. c #893F46",
"O. c #853D43",
"+. c #854248",
"@. c #94424A",
"#. c #93494F",
"$. c #8B5459",
"%. c #90575B",
"&. c #A4434C",
"*. c #A64C59",
"=. c #8B5062",
"-. c #AC5F65",
";. c #BD5B64",
":. c #87696C",
">. c #88686A",
",. c #906E70",
"<. c #857A7A",
"1. c #8A7D7D",
"2. c #AE6066",
"3. c #A0687B",
"4. c #A97176",
"5. c #C06673",
"6. c #C0787F",
"7. c #D5767F",
"8. c #245C82",
"9. c #2C5F82",
"0. c #305F81",
"q. c #2B6085",
"w. c #386686",
"e. c #466B8A",
"r. c #46708E",
"t. c #4F7187",
"y. c #5B7E97",
"u. c #72728C",
"i. c #6F7D96",
"p. c #677D89",
"a. c #A47E90",
"s. c #C47C82",
"d. c #CD7B82",
"f. c #D87780",
"g. c #69889E",
"h. c #788387",
"j. c #6B8CA1",
"k. c #7C96A9",
"l. c #8F8C8C",
"z. c #BD9699",
"x. c #A89799",
"c. c #8799A9",
"v. c #9F93A3",
"b. c #BE9FA1",
"n. c #9DA3B1",
"m. c #94ACB9",
"M. c #99ADB9",
"N. c #A1A1A1",
"B. c #B9A9AB",
"V. c #A6ABB5",
"C. c #A1B3BE",
"Z. c #BCB0B6",
"A. c #C78189",
"S. c #C4999D",
"D. c #DD949C",
"F. c #D1999F",
"G. c #D78E97",
"H. c #E3989E",
"J. c #C49FA8",
"K. c #D79EA2",
"L. c #CEA6AD",
"P. c #D2A3AA",
"I. c #C3B9BE",
"U. c #C1B7BD",
"Y. c #DCB3B6",
"T. c #D4B5B8",
"R. c #CAACB5",
"E. c #E5B4B7",
"W. c #E6ADB2",
"Q. c #AFBEC6",
"!. c #AFC2C9",
"~. c #BEC9CD",
"^. c #BFCDD1",
"/. c #C0C6CB",
"(. c #C6C8CB",
"). c #D3C5C6",
"_. c #D7C6C8",
"`. c #D8CACC",
"'. c #CCD3D5",
"]. c #D6D3D4",
"[. c #DCD3D4",
"{. c #D9D8D8",
"}. c #E4C3C5",
"|. c #E6C8CA",
" X c #E8C8CA",
".X c #E2CFD0",
"XX c #E4D4D5",
"oX c #E2D9D9",
"OX c None",
/* pixels */
"OXOXOXOXOXOXOXOXOXOXOXOXOXOXOXOXOXOXOXOXOXOXOXOXOXOXOXOXOXOXOXOXOXOXOXOXOXOXOXOXOXOXOXOXOXOXOXOXOXOXOXOXOXOXOXOXOXOXOXOXOXOXOXOX",
"OXOXOXOXOXOXOXOXOXOXOXOXOXOXOXOXOXOXOXOXOXOXOXOXOXOXOXOXOXOXOXOXOXOXOXOXOXOXOXOXOXOXOXOXOXOXOXOXOXOXOXOXOXOXOXOXOXOXOXOXOXOXOXOX",
"OXOXOXOXOXOXOXOXOXOXOXOXOXOXOXOXOXOXOXOXOXOXOXOXOXOXOXOXOXOXOXOXOXOXOXOXOXOXOXOXOXOXOXOXOXOXOXOXOXOXOXOXOXOXOXOXOXOXOXOXOXOXOXOX",
"OXOXOXOXOXOXOXOXOXOXOXOXOXOXOXOXOXOXOXOXOXOXOXOXOXOXOXOXOXOXOXOXOXOXOXOXOXOXOXOXOXOXOXOXOXOXOXOXOXOXOXOXOXOXOXOXOXOXOXOXOXOXOXOX",
"OXOXOXOXOXOXOXOXOXOXOXOXOXOXOXOXOXOXOXOXOXOXOXOXOXOXOXOXOXOXOXOXOXOXOXOXOXOXOXOXOXOXOXOXOXOXOXOXOXOXOXOXOXOXOXOXOXOXOXOXOXOXOXOX",
"OXOXOXOXOXOXOXOXOXOXOXOXOXOXOXOXOXOXOXOXOXOXOXOXOXOXOXOXOXOXOXOXOXOXOXOXOXOXOXOXOXOXOXOXOXOXOXOXOXOXOXOXOXOXOXOXOXOXOXOXOXOXOXOX",
"OXOXOXOXOXOXOXOXOXOXOXOXOXOXOXOXOXOXOXOXOXOXOXOXOXOXOXOXOXOXOXOXOXOXOXOXOXOXOXOXOXOXOXOXOXOXOXOXOXOXOXOXOXOXOXOXOXOXOXOXOXOXOXOX",
"OXOXOXOXOXOXOXOXOXOXOXOXOXOXOXOXOXOXOXOXOXOXOXOXOXOXOXOXOXOXOXOXOXOXOXOXOXOXOXOXOXOXOXOXOXOXOXOXOXOXOXOXOXOXOXOXOXOXOXOXOXOXOXOX",
"OXOXOXOXOXOXOXOXOXOXOXOXOXOXOXOXOXOXOXOXOXOXOXOXOXOXOXOXOXOXOXOXOXOXOXOXOXOXOXOXOXOXOXOXOXOXOXOXOXOXOXOXOXOXOXOXOXOXOXOXOXOXOXOX",
"OXOXOXOXOXOXOXOXOXOXOXOXOXOXOXOXOXOXOXOXOXOXOXOXOXOXOXOXOXOXOXOXOXOXOXOXOXOXOXOXOXOXOXOXOXOXOXOXOXOXOXOXOXOXOXOXOXOXOXOXOXOXOXOX",
"OXOXOXOXOXOXOXOXOXOXOXOXOXOXOXOXOXOXOXOXOXOXOXOXOXOXOXOXOXOXOXOXOXOXOXOXOXOXOXOXOXOXOXOXOXOXOXOXOXOXOXOXOXOXOXOXOXOXOXOXOXOXOXOX",
"OXOXOXOXOXOXOXOXOXOXOXOXOXOXOXOXOXOXOXOXOXOXOXOXOXOXOXOXOXOXOXOXOXOXOXOXOXOXOXOXOXOXOXOXOXOXOXOXOXOXOXOXOXOXOXOXOXOXOXOXOXOXOXOX",
"OXOXOXOXOXOXOXOXOXOXOXOXOXOXOXOXOXOXOXOXOXOXOXOXOXOXOXOXOXOXOXOXOXOXOXOXOXOXOXOXOXOXOXOXOXOXOXOXOXOXOXOXOXOXOXOXOXOXOXOXOXOXOXOX",
"OXOXOXOXOXOXOXOXOXOXOXOXOXOXOXOXOXOXOXOXOXOXOXOXOXOXOXOXOXOXOXOXOXOXOXOXOXOXOXOXOXOXOXOXOXOXOXOXOXOXOXOXOXOXOXOXOXOXOXOXOXOXOXOX",
"OXOXOXOXOXOXOXOXOXOXOXOXOXOXOXOXOXOXOXOXOXOXOXOXOXOXOXOXOXOXOXOXOXOXOXOXOXOXOXOXOXOXOXOXOXOXOXOXOXOXOXOXOXOXOXOXOXOXOXOXOXOXOXOX",
"OXOXOXOXOXOXOXOXOXOXOXOXOXOXOXOXOXOXOXOXOXOXOXOXOXOXOXOXOXOXOXOXOXOXOXOXOXOXOXOXOXOXOXOXOXOXOXOXOXOXOXOXOXOXOXOXOXOXOXOXOXOXOXOX",
"OXOXOXOXOXOXOXOXOXOXOXOXOX            OXOXOXOXOXOXOXOXOXOXOXOXOXOXOXOXOXOXOXOXOXOXOXOXOXOX            OXOXOXOXOXOXOXOXOXOXOXOXOX",
"OXOXOXOXOXOXOXOXOXOXOXOX                OXOXOXOXOXOXOXOXOXOXOXOXOXOXOXOXOXOXOXOXOXOXOXOX                OXOXOXOXOXOXOXOXOXOXOXOX",
"OXOXOXOXOXOXOXOXOXOXOXOXX X X .         OXOXOXOXOXOXOXOXOXOXOXOXOXOXOXOXOXOXOXOXOXOXOXOX      . O X X X OXOXOXOXOXOXOXOXOXOXOXOX",
"OXOXOXOXOXOXOXOXOXOXOXo * * * o X       OXOXOXOXOXOXOXOXOXOXOXOXOXOXOXOXOXOXOXOXOXOXOXOX      X $ * * * @ OXOXOXOXOXOXOXOXOXOXOX",
"OXOXOXOXOXOXOXOXOX  X * 5 q 6 : o .     OXOXOXOXOXOXOXOXOXOXOXOXOXOXOXOXOXOXOXOXOXOXOXOX    . o : 6 q 5 * X   OXOXOXOXOXOXOXOXOX",
"OXOXOXOXOXOXOXOX    X = e u u q * .     OXOXOXOXOXOXOXOXOXOXOXOXOXOXOXOXOXOXOXOXOXOXOXOX    . * q u u e = X     OXOXOXOXOXOXOXOX",
"OXOXOXOXOXOXOXOX    X = e k k r = X     OXOXOXOXOXOXOXOXOXOXOXOXOXOXOXOXOXOXOXOXOXOXOXOX    . : e k k e = X     OXOXOXOXOXOXOXOX",
"OXOXOXOXOXOXOXOX    X : r k k r = .       OXOXOXOXOXOXOXOXOXOXOXOXOXOXOXOXOXOXOXOXOXOXOX    . : e k k r = X     OXOXOXOXOXOXOXOX",
"OXOXOXOXOXOXOXOX    X = r k k r = .           OXOXOXOXOXOX                    OXOXOXOXOX    . * e k k r = X     OXOXOXOXOXOXOXOX",
"OXOXOXOXOXOXOXOX    X = e k k r : X             OXOXOXOX              O         OXOXOXOX    X : e k k e = X     OXOXOXOXOXOXOXOX",
"OXOXOXOXOXOXOXOX    X : r k k u 5 @ X . X X X . OXOXOXOX# # # ; , > > , ; # # # OXOXOXOX. X * 5 u k k e = X     OXOXOXOXOXOXOXOX",
"OXOXOXOXOXOXOXOX    X = r k k k e 5 = * = - * & . OXOX1 7 c m B A ) ) A B m x 7 1 OXOXO o * 5 e k Z k e : X     OXOXOXOXOXOXOXOX",
"OXOXOXOXOXOXOXOX    X = e k V Z k r e e r e q : .   + 4 n J O.$.:.<.<.:.$.o.X.n 7 +   % : e u k Z C k e = X     OXOXOXOXOXOXOXOX",
"OXOXOXOXOXOXOXOX    X = t k V C Z k k k k k r q * X 1 x J &.;.6.z.B.B.z.4.;.&.X.v # X * q u k Z C C k e * X     OXOXOXOXOXOXOXOX",
"OXOXOXOXOXOXOXOX    X * q u k Z C C C V Z k j r w w h S @.;.7.D.Y._._.E.H.7.;.@.G 9 2 5 q j k k k k u q * X     OXOXOXOXOXOXOXOX",
"OXOXOXOXOXOXOXOXOX  . * : q u j k C C Z k u h l z ` ' >.4.A.H.W.|.XXXX XW.H.d.-.+.N v 8 y y r r e e q 5 * X   OXOXOXOXOXOXOXOXOX",
"OXOXOXOXOXOXOXOXOXOXOXX * * : e p V V p q 5 g T '  .l.x.b.L.Y.}..X{.oXXX|.E.K.A.-.@.J n i 6 = = * * = * o OXOXOXOXOXOXOXOXOXOXOX",
"OXOXOXOXOXOXOXOXOXOXOXOXO X * 5 u Z p e = @ > (  .N.Z.(.).)._.`.].].].].`._.T.F.d.;.&.J v 2 X O . X X X OXOXOXOXOXOXOXOXOXOXOXOX",
"OXOXOXOXOXOXOXOXOXOXOXOX    X * t u u 5 $ X > ) a.N._.[.[.].'.'.(.~.~.~.~./.Z.R.G.7.;.+.m # O           OXOXOXOXOXOXOXOXOXOXOXOX",
"OXOXOXOXOXOXOXOXOXOXOXOXOX  . * 5 q 5 * . . , D ,.z.E. XXX{.'.~.Q.Q.n.m.m.M.V.Z.K.D.6.%.S =           OXOXOXOXOXOXOXOXOXOXOXOXOX",
"OXOXOXOXOXOXOXOXOXOXOXOXOXOXOXo * * * .     ; S $.s.H.E. X].'.Q.m.k.j.j.j.j.c.n.Z.T.S.,.D >       OXOXOXOXOXOXOXOXOXOXOXOXOXOXOX",
"OXOXOXOXOXOXOXOXOXOXOXOXOXOXOXOX. . . O     # M o.;.f.H.E.`.~.Q.k.y.r.w.w.r.y.c.V.I.B.1.) >     OXOXOXOXOXOXOXOXOXOXOXOXOXOXOXOX",
"OXOXOXOXOXOXOXOXOXOXOXOXOXOXOXOX            # c X.&.;.d.K.T.I.M.j.r.0.! ! 0.e.g.c.V.N. ._ w     OXOXOXOXOXOXOXOXOXOXOXOXOXOXOXOX",
"OXOXOXOXOXOXOXOXOXOXOXOXOXOXOXOXOX          # c n J @.2.s.K.J.v.i.e.9.8.8.! w.e.h.h. ...P >   OXOXOXOXOXOXOXOXOXOXOXOXOXOXOXOXOX",
"OXOXOXOXOXOXOXOXOXOXOXOXOXOXOXOXOXOXOXOXOXOXOX1 7 x G +.2.7.d.a.u.e.0.8.q.q.^ ^ [ ] ` P l OXOXOXOXOXOXOXOXOXOXOXOXOXOXOXOXOXOXOX",
"OXOXOXOXOXOXOXOXOXOXOXOXOXOXOXOXOXOXOXOXOXOXOXOX+ # 9 G #.;.5.,.| } 0.9.q.! Q E Y d > , OXOXOXOXOXOXOXOXOXOXOXOXOXOXOXOXOXOXOXOX",
"OXOXOXOXOXOXOXOXOXOXOXOXOXOXOXOXOXOXOXOXOXOXOXOX  O 2 v X.&.*.$.{ [ Q ~ ~ Q / I a %     OXOXOXOXOXOXOXOXOXOXOXOXOXOXOXOXOXOXOXOX",
"OXOXOXOXOXOXOXOXOXOXOXOXOXOXOXOXOXOXOXOXOXOXOXOXOX  + 7 F J L R T Y U U U U I f < O   OXOXOXOXOXOXOXOXOXOXOXOXOXOXOXOXOXOXOXOXOX",
"OXOXOXOXOXOXOXOXOXOXOXOXOXOXOXOXOXOXOXOXOXOXOXOXOXOXOX3 7 c v h u s s a a s 0 0 % OXOXOXOXOXOXOXOXOXOXOXOXOXOXOXOXOXOXOXOXOXOXOX",
"OXOXOXOXOXOXOXOXOXOXOXOXOXOXOXOXOXOXOXOXOXOXOXOXOXOXOXOX# # # @ * % % % % % % % OXOXOXOXOXOXOXOXOXOXOXOXOXOXOXOXOXOXOXOXOXOXOXOX",
"OXOXOXOXOXOXOXOXOXOXOXOXOXOXOXOXOXOXOXOXOXOXOXOXOXOXOXOX        O               OXOXOXOXOXOXOXOXOXOXOXOXOXOXOXOXOXOXOXOXOXOXOXOX",
"OXOXOXOXOXOXOXOXOXOXOXOXOXOXOXOXOXOXOXOXOXOXOXOXOXOXOXOXOX                    OXOXOXOXOXOXOXOXOXOXOXOXOXOXOXOXOXOXOXOXOXOXOXOXOX",
"OXOXOXOXOXOXOXOXOXOXOXOXOXOXOXOXOXOXOXOXOXOXOXOXOXOXOXOXOXOXOXOXOXOXOXOXOXOXOXOXOXOXOXOXOXOXOXOXOXOXOXOXOXOXOXOXOXOXOXOXOXOXOXOX",
"OXOXOXOXOXOXOXOXOXOXOXOXOXOXOXOXOXOXOXOXOXOXOXOXOXOXOXOXOXOXOXOXOXOXOXOXOXOXOXOXOXOXOXOXOXOXOXOXOXOXOXOXOXOXOXOXOXOXOXOXOXOXOXOX",
"OXOXOXOXOXOXOXOXOXOXOXOXOXOXOXOXOXOXOXOXOXOXOXOXOXOXOXOXOXOXOXOXOXOXOXOXOXOXOXOXOXOXOXOXOXOXOXOXOXOXOXOXOXOXOXOXOXOXOXOXOXOXOXOX",
"OXOXOXOXOXOXOXOXOXOXOXOXOXOXOXOXOXOXOXOXOXOXOXOXOXOXOXOXOXOXOXOXOXOXOXOXOXOXOXOXOXOXOXOXOXOXOXOXOXOXOXOXOXOXOXOXOXOXOXOXOXOXOXOX",
"OXOXOXOXOXOXOXOXOXOXOXOXOXOXOXOXOXOXOXOXOXOXOXOXOXOXOXOXOXOXOXOXOXOXOXOXOXOXOXOXOXOXOXOXOXOXOXOXOXOXOXOXOXOXOXOXOXOXOXOXOXOXOXOX",
"OXOXOXOXOXOXOXOXOXOXOXOXOXOXOXOXOXOXOXOXOXOXOXOXOXOXOXOXOXOXOXOXOXOXOXOXOXOXOXOXOXOXOXOXOXOXOXOXOXOXOXOXOXOXOXOXOXOXOXOXOXOXOXOX",
"OXOXOXOXOXOXOXOXOXOXOXOXOXOXOXOXOXOXOXOXOXOXOXOXOXOXOXOXOXOXOXOXOXOXOXOXOXOXOXOXOXOXOXOXOXOXOXOXOXOXOXOXOXOXOXOXOXOXOXOXOXOXOXOX",
"OXOXOXOXOXOXOXOXOXOXOXOXOXOXOXOXOXOXOXOXOXOXOXOXOXOXOXOXOXOXOXOXOXOXOXOXOXOXOXOXOXOXOXOXOXOXOXOXOXOXOXOXOXOXOXOXOXOXOXOXOXOXOXOX",
"OXOXOXOXOXOXOXOXOXOXOXOXOXOXOXOXOXOXOXOXOXOXOXOXOXOXOXOXOXOXOXOXOXOXOXOXOXOXOXOXOXOXOXOXOXOXOXOXOXOXOXOXOXOXOXOXOXOXOXOXOXOXOXOX",
"OXOXOXOXOXOXOXOXOXOXOXOXOXOXOXOXOXOXOXOXOXOXOXOXOXOXOXOXOXOXOXOXOXOXOXOXOXOXOXOXOXOXOXOXOXOXOXOXOXOXOXOXOXOXOXOXOXOXOXOXOXOXOXOX",
"OXOXOXOXOXOXOXOXOXOXOXOXOXOXOXOXOXOXOXOXOXOXOXOXOXOXOXOXOXOXOXOXOXOXOXOXOXOXOXOXOXOXOXOXOXOXOXOXOXOXOXOXOXOXOXOXOXOXOXOXOXOXOXOX",
"OXOXOXOXOXOXOXOXOXOXOXOXOXOXOXOXOXOXOXOXOXOXOXOXOXOXOXOXOXOXOXOXOXOXOXOXOXOXOXOXOXOXOXOXOXOXOXOXOXOXOXOXOXOXOXOXOXOXOXOXOXOXOXOX",
"OXOXOXOXOXOXOXOXOXOXOXOXOXOXOXOXOXOXOXOXOXOXOXOXOXOXOXOXOXOXOXOXOXOXOXOXOXOXOXOXOXOXOXOXOXOXOXOXOXOXOXOXOXOXOXOXOXOXOXOXOXOXOXOX",
"OXOXOXOXOXOXOXOXOXOXOXOXOXOXOXOXOXOXOXOXOXOXOXOXOXOXOXOXOXOXOXOXOXOXOXOXOXOXOXOXOXOXOXOXOXOXOXOXOXOXOXOXOXOXOXOXOXOXOXOXOXOXOXOX",
"OXOXOXOXOXOXOXOXOXOXOXOXOXOXOXOXOXOXOXOXOXOXOXOXOXOXOXOXOXOXOXOXOXOXOXOXOXOXOXOXOXOXOXOXOXOXOXOXOXOXOXOXOXOXOXOXOXOXOXOXOXOXOXOX",
"OXOXOXOXOXOXOXOXOXOXOXOXOXOXOXOXOXOXOXOXOXOXOXOXOXOXOXOXOXOXOXOXOXOXOXOXOXOXOXOXOXOXOXOXOXOXOXOXOXOXOXOXOXOXOXOXOXOXOXOXOXOXOXOX"
};
