/* XPM */
static char *result[] = {
/* columns rows colors chars-per-pixel */
"64 64 188 2 ",
"   c #010101",
".  c #090506",
"X  c #0A0608",
"o  c #0E090D",
"O  c #130506",
"+  c #110A0E",
"@  c #1C0C0D",
"#  c #10070E",
"$  c #060D12",
"%  c #0D0D11",
"&  c #150C13",
"*  c #190F16",
"=  c #1A0E18",
"-  c #1D1315",
";  c #1D1119",
":  c #1D1C1C",
">  c #1A1816",
",  c #08161F",
"<  c #290B0E",
"1  c #2C0E10",
"2  c #220F13",
"3  c #390D11",
"4  c #22131D",
"5  c #28131A",
"6  c #3B1316",
"7  c #3F1518",
"8  c #37181B",
"9  c #0D1C27",
"0  c #261621",
"q  c #281723",
"w  c #211E21",
"e  c #2B1926",
"r  c #2E1B28",
"t  c #341924",
"y  c #3C1B23",
"u  c #341E2D",
"i  c #381F30",
"p  c #0F232F",
"a  c #11222E",
"s  c #1C242C",
"d  c #122837",
"f  c #2B252A",
"g  c #34252B",
"h  c #3C2334",
"j  c #352732",
"k  c #3D3B3F",
"l  c #44191C",
"z  c #4A1B1F",
"x  c #511A1F",
"c  c #4C1D22",
"v  c #431B22",
"b  c #5F1D23",
"n  c #4D2226",
"m  c #572329",
"M  c #4F2F32",
"N  c #42263A",
"B  c #45283C",
"V  c #402437",
"C  c #4E3C3E",
"Z  c #513133",
"A  c #523E3F",
"S  c #612127",
"D  c #612A2F",
"F  c #642C31",
"G  c #7A2E35",
"H  c #742B32",
"J  c #6C353B",
"K  c #3F403E",
"L  c #1B3649",
"P  c #1D3C52",
"I  c #283847",
"U  c #473849",
"Y  c #643643",
"T  c #28465B",
"R  c #3E526D",
"E  c #2B5471",
"W  c #285B7F",
"Q  c #265574",
"!  c #365C77",
"~  c #244963",
"^  c #444344",
"/  c #4C4546",
"(  c #4A494A",
")  c #474B4B",
"_  c #5D595A",
"`  c #4C4D4F",
"'  c #425662",
"]  c #635268",
"[  c #47617F",
"{  c #72657E",
"}  c #787979",
"|  c #636463",
" . c #803137",
".. c #893F46",
"X. c #853D43",
"o. c #874349",
"O. c #94434A",
"+. c #93494F",
"@. c #8B5459",
"#. c #90575B",
"$. c #A4434C",
"%. c #A64C59",
"&. c #8B5062",
"*. c #AC5F65",
"=. c #BD5B64",
"-. c #8B6C6E",
";. c #846669",
":. c #906E70",
">. c #857A7A",
",. c #8A7D7D",
"<. c #AE6066",
"1. c #A0687B",
"2. c #A97176",
"3. c #C06673",
"4. c #C0787F",
"5. c #D5767F",
"6. c #245C82",
"7. c #2C5F82",
"8. c #305F81",
"9. c #2B6085",
"0. c #386686",
"q. c #466B8A",
"w. c #46708E",
"e. c #4F7187",
"r. c #5B7E97",
"t. c #72728C",
"y. c #6F7D96",
"u. c #677D89",
"i. c #A47E90",
"p. c #C37A81",
"a. c #CC7B82",
"s. c #D57981",
"d. c #69889E",
"f. c #788387",
"g. c #6B8CA1",
"h. c #7C96A9",
"j. c #8F8C8C",
"k. c #BE969A",
"l. c #A89799",
"z. c #8799A9",
"x. c #9F93A3",
"c. c #BE9FA1",
"v. c #9DA3B1",
"b. c #94ACB9",
"n. c #99ADB9",
"m. c #A1A1A1",
"M. c #B9A9AB",
"N. c #A6ABB5",
"B. c #A1B3BE",
"V. c #BCB0B6",
"C. c #C58085",
"Z. c #C9828B",
"A. c #C4999D",
"S. c #DD949C",
"D. c #D19A9F",
"F. c #D78E97",
"G. c #E3989E",
"H. c #C49FA8",
"J. c #D79EA2",
"K. c #CEA6AD",
"L. c #D2A3AA",
"P. c #C3B9BE",
"I. c #C1B7BD",
"U. c #DCB3B6",
"Y. c #D4B5B8",
"T. c #CAACB5",
"R. c #E5B4B7",
"E. c #E6ADB2",
"W. c #AFBEC6",
"Q. c #AFC2C9",
"!. c #BEC9CD",
"~. c #BFCDD1",
"^. c #C0C6CB",
"/. c #C6C8CB",
"(. c #D3C5C6",
"). c #D7C6C8",
"_. c #D8CACC",
"`. c #CCD3D5",
"'. c #D6D3D4",
"]. c #DCD3D4",
"[. c #D9D8D8",
"{. c #E4C4C6",
"}. c #E6C8C9",
"|. c #E9C9CC",
" X c #E2CFD0",
".X c #E3D4D5",
"XX c #E2D9D9",
"oX c None",
/* pixels */
"oXoXoXoXoXoXoXoXoXoXoXoXoXoXoXoXoXoXoXoXoXoXoXoXoXoXoXoXoXoXoXoXoXoXoXoXoXoXoXoXoXoXoXoXoXoXoXoXoXoXoXoXoXoXoXoXoXoXoXoXoXoXoXoX",
"oXoXoXoXoXoXoXoXoXoXoXoXoXoXoXoXoXoXoXoXoXoXoXoXoXoXoXoXoXoXoXoXoXoXoXoXoXoXoXoXoXoXoXoXoXoXoXoXoXoXoXoXoXoXoXoXoXoXoXoXoXoXoXoX",
"oXoXoXoXoXoXoXoXoXoXoXoXoXoXoXoXoXoXoXoXoXoXoXoXoXoXoXoXoXoXoXoXoXoXoXoXoXoXoXoXoXoXoXoXoXoXoXoXoXoXoXoXoXoXoXoXoXoXoXoXoXoXoXoX",
"oXoXoXoXoXoXoXoXoXoXoXoXoXoXoXoXoXoXoXoXoXoXoXoXoXoXoXoXoXoXoXoXoXoXoXoXoXoXoXoXoXoXoXoXoXoXoXoXoXoXoXoXoXoXoXoXoXoXoXoXoXoXoXoX",
"oXoXoXoXoXoXoXoXoXoXoXoXoXoXoXoXoXoXoXoXoXoXoXoXoXoXoXoXoXoXoXoXoXoXoXoXoXoXoXoXoXoXoXoXoXoXoXoXoXoXoXoXoXoXoXoXoXoXoXoXoXoXoXoX",
"oXoXoXoXoXoXoXoXoXoXoXoXoXoXoXoXoXoXoXoXoXoXoXoXoXoXoXoXoXoXoXoXoXoXoXoXoXoXoXoXoXoXoXoXoXoXoXoXoXoXoXoXoXoXoXoXoXoXoXoXoXoXoXoX",
"oXoXoXoXoXoXoXoXoXoXoXoXoXoXoXoXoXoXoXoXoXoXoXoXoXoXoXoXoXoXoXoXoXoXoXoXoXoXoXoXoXoXoXoXoXoXoXoXoXoXoXoXoXoXoXoXoXoXoXoXoXoXoXoX",
"oXoXoXoXoXoXoXoXoXoXoXoXoXoXoXoXoXoXoXoXoXoXoXoXoXoXoXoXoXoXoXoXoXoXoXoXoXoXoXoXoXoXoXoXoXoXoXoXoXoXoXoXoXoXoXoXoXoXoXoXoXoXoXoX",
"oXoXoXoXoXoXoXoXoXoXoXoXoXoXoXoXoXoXoXoXoXoXoXoXoXoXoXoXoXoXoXoXoXoXoXoXoXoXoXoXoXoXoXoXoXoXoXoXoXoXoXoXoXoXoXoXoXoXoXoXoXoXoXoX",
"oXoXoXoXoXoXoXoXoXoXoXoXoXoXoXoXoXoXoXoXoXoXoXoXoXoXoXoXoXoXoXoXoXoXoXoXoXoXoXoXoXoXoXoXoXoXoXoXoXoXoXoXoXoXoXoXoXoXoXoXoXoXoXoX",
"oXoXoXoXoXoXoXoXoXoXoXoXoXoXoXoXoXoXoXoXoXoXoXoXoXoXoXoXoXoXoXoXoXoXoXoXoXoXoXoXoXoXoXoXoXoXoXoXoXoXoXoXoXoXoXoXoXoXoXoXoXoXoXoX",
"oXoXoXoXoXoXoXoXoXoXoXoXoXoXoXoXoXoXoXoXoXoXoXoXoXoXoXoXoXoXoXoXoXoXoXoXoXoXoXoXoXoXoXoXoXoXoXoXoXoXoXoXoXoXoXoXoXoXoXoXoXoXoXoX",
"oXoXoXoXoXoXoXoXoXoXoXoXoXoXoXoXoXoXoXoXoX            oXoXoXoXoXoXoXoXoXoX            oXoXoXoXoXoXoXoXoXoXoXoXoXoXoXoXoXoXoXoXoX",
"oXoXoXoXoXoXoXoXoXoXoXoXoXoXoXoXoXoXoXoX                oXoXoXoXoXoXoXoX                oXoXoXoXoXoXoXoXoXoXoXoXoXoXoXoXoXoXoXoX",
"oXoXoXoXoXoXoXoXoXoXoXoXoXoXoXoXoXoXoXoX. X . . .       oXoXoXoXoXoXoXoX      . . . X . oXoXoXoXoXoXoXoXoXoXoXoXoXoXoXoXoXoXoXoX",
"oXoXoXoXoXoXoXoXoXoXoXoXoXoXoXoXoXoXoXo & * & + .       oXoXoXoXoXoXoXoX      X o & * & o oXoXoXoXoXoXoXoXoXoXoXoXoXoXoXoXoXoXoX",
"oXoXoXoXoXoXoXoXoXoXoXoXoXoXoXoXoX  . & 4 q q ; + .     oXoXoXoXoXoXoXoX    . o ; q q 0 & .   oXoXoXoXoXoXoXoXoXoXoXoXoXoXoXoXoX",
"oXoXoXoXoXoXoXoXoXoXoXoXoXoXoXoX    X = q u u q & .     oXoXoXoXoXoXoXoX    . & q u u q * X     oXoXoXoXoXoXoXoXoXoXoXoXoXoXoXoX",
"oXoXoXoXoXoXoXoXoXoXoXoXoXoXoXoX. . o ; e g u q * X     oXoXoXoXoXoXoXoX    X * q u u q ; o . . oXoXoXoXoXoXoXoXoXoXoXoXoXoXoXoX",
"oXoXoXoXoXoXoXoXoXoXoXoXoXoXoXo & & ; ; q q q ; & .   oXoXoXoXoXoXoXoXoXoX  . * 4 q q q ; ; & & o oXoXoXoXoXoXoXoXoXoXoXoXoXoXoX",
"oXoXoXoXoXoXoXoXoXoXoXoXoX  . & ; q q q 4 = * & o oXoXoXoXoXoXoXoXoXoXoXoXoXoX+ & ; ; ; q q q 4 & .   oXoXoXoXoXoXoXoXoXoXoXoXoX",
"oXoXoXoXoXoXoXoXoXoXoXoX    X * q u g q ; & X . oXoXoXoXoXoXoXoXoXoXoXoXoXoXoXoX. . + ; q u u q * X     oXoXoXoXoXoXoXoXoXoXoXoX",
"oXoXoXoXoXoXoXoXoXoXoXoX    X * r h h r * .     oXoXoXoXoXoXoXoXoXoXoXoXoXoXoXoX    X ; r h h r * X     oXoXoXoXoXoXoXoXoXoXoXoX",
"oXoXoXoXoXoXoXoXoXoXoXoX    X * r h h q * .     oXoXoXoXoXoXoXoXoXoXoXoXoXoXoX      . ; r h h r * X     oXoXoXoXoXoXoXoXoXoXoXoX",
"oXoXoXoXoXoXoXoXoXoXoXoX    . ; r h h u *       oXoXoXoXoX                          . * r h h r * X     oXoXoXoXoXoXoXoXoXoXoXoX",
"oXoXoXoXoXoXoXoXoXoXoXoX    X * r i h e = X     oXoXoXoX              .             X * r h h q ; .     oXoXoXoXoXoXoXoXoXoXoXoX",
"oXoXoXoXoXoXoXoXoXoXoXoX    X * r h h u 4 & X   oXoXoXoX@ @ @ - > : : > 2 @ @ . . . X = r h h r * X     oXoXoXoXoXoXoXoXoXoXoXoX",
"oXoXoXoXoXoXoXoXoXoXoXoX    X * q h h i e 4 = o . oXoX< 6 l n M C / / C Z n l < O   . & q h h u ; X     oXoXoXoXoXoXoXoXoXoXoXoX",
"oXoXoXoXoXoXoXoXoXoXoXoX    X * r h N h h u 0 = .   O 3 b H X.@.;.>.>.;.@. . .x < . . & q h h r * X     oXoXoXoXoXoXoXoXoXoXoXoX",
"oXoXoXoXoXoXoXoXoXoXoXoX    . * q h B B N h g 0 & X < z G $.=.p.A.M.M.A.i.=.$.G l @ . & e h h r * X     oXoXoXoXoXoXoXoXoXoXoXoX",
"oXoXoXoXoXoXoXoXoXoXoXoX    . * q h B B N h j r w w g Z +.=.s.S.U.).).U.G.5.=.O.D 8 2 4 r u u 4 & .     oXoXoXoXoXoXoXoXoXoXoXoX",
"oXoXoXoXoXoXoXoXoXoXoXoX    X * r h B V i u u j k ) _ ;.2.a.G.E.{..X.X}.R.G.5.<.o.F c l t r q * o .     oXoXoXoXoXoXoXoXoXoXoXoX",
"oXoXoXoXoXoXoXoXoXoXoXoX    . * r h V u 5 4 r k _ } j.l.c.L.U.{. XXXXX.X}.R.J.C.*.O.G m v 5 & o .       oXoXoXoXoXoXoXoXoXoXoXoX",
"oXoXoXoXoXoXoXoXoXoXoXoX    X * r V i e = + s / } m.V.(.(.(.)._.'.'.'.'._.).Y.D.a.=.$.G c 2 .           oXoXoXoXoXoXoXoXoXoXoXoX",
"oXoXoXoXoXoXoXoXoXoXoXoX    X * q u u 4 + X : / } M._.].].'.`.`././.!.!.!.^.P.K.F.5.=.o.n * .           oXoXoXoXoXoXoXoXoXoXoXoX",
"oXoXoXoXoXoXoXoXoXoXoXoXoX  . * 4 q 4 & . . > A -.H.U.|..X[.`.~.Q.B.n.b.n.n.N.M.J.S.4.#.Z 2           oXoXoXoXoXoXoXoXoXoXoXoXoX",
"oXoXoXoXoXoXoXoXoXoXoXoXoXoXoX+ & * & .     - Z #.4.G.R.}.'.`.W.b.h.g.d.g.g.h.N.V.Y.A.:.A :       oXoXoXoXoXoXoXoXoXoXoXoXoXoXoX",
"oXoXoXoXoXoXoXoXoXoXoXoXoXoXoXoX. . .       @ n ..=.5.G.R._.^.W.h.r.q.q.0.w.r.h.N.P.M.,./ :     oXoXoXoXoXoXoXoXoXoXoXoXoXoXoXoX",
"oXoXoXoXoXoXoXoXoXoXoXoXoXoXoXoX            @ z G $.=.s.J.Y.W.v.g.q.7.6.6.8.q.d.z.N.m.} ( w     oXoXoXoXoXoXoXoXoXoXoXoXoXoXoXoX",
"oXoXoXoXoXoXoXoXoXoXoXoXoXoXoXoXoX          @ l S G O.<.p.S.H.x.y.q.7.W 6.7.0.e.f.f.} | K :   oXoXoXoXoXoXoXoXoXoXoXoXoXoXoXoXoX",
"oXoXoXoXoXoXoXoXoXoXoXoXoXoXoXoXoXoXoXoXoXoXoX< 6 z D o.<.a.F.i.t.q.W 6.6.9.8.! ' ` ) K j oXoXoXoXoXoXoXoXoXoXoXoXoXoXoXoXoXoXoX",
"oXoXoXoXoXoXoXoXoXoXoXoXoXoXoXoXoXoXoXoXoXoXoXoXO @ 8 F O.=.3.:.t.[ 8.7.7.7.E T I f : > oXoXoXoXoXoXoXoXoXoXoXoXoXoXoXoXoXoXoXoX",
"oXoXoXoXoXoXoXoXoXoXoXoXoXoXoXoXoXoXoXoXoXoXoXoX    @ c  .$.%.&.] ' E Q Q E ~ L p $     oXoXoXoXoXoXoXoXoXoXoXoXoXoXoXoXoXoXoXoX",
"oXoXoXoXoXoXoXoXoXoXoXoXoXoXoXoXoXoXoXoXoXoXoXoXoX  O 7 S G G Y U I P P P P L d , .   oXoXoXoXoXoXoXoXoXoXoXoXoXoXoXoXoXoXoXoXoX",
"oXoXoXoXoXoXoXoXoXoXoXoXoXoXoXoXoXoXoXoXoXoXoXoXoXoXoX1 7 z v y r a p p p p 9 9 $ oXoXoXoXoXoXoXoXoXoXoXoXoXoXoXoXoXoXoXoXoXoXoX",
"oXoXoXoXoXoXoXoXoXoXoXoXoXoXoXoXoXoXoXoXoXoXoXoXoXoXoXoX@ @ * + & % $ $ $ $ $ $ oXoXoXoXoXoXoXoXoXoXoXoXoXoXoXoXoXoXoXoXoXoXoXoX",
"oXoXoXoXoXoXoXoXoXoXoXoXoXoXoXoXoXoXoXoXoXoXoXoXoXoXoXoX                        oXoXoXoXoXoXoXoXoXoXoXoXoXoXoXoXoXoXoXoXoXoXoXoX",
"oXoXoXoXoXoXoXoXoXoXoXoXoXoXoXoXoXoXoXoXoXoXoXoXoXoXoXoXoX                    oXoXoXoXoXoXoXoXoXoXoXoXoXoXoXoXoXoXoXoXoXoXoXoXoX",
"oXoXoXoXoXoXoXoXoXoXoXoXoXoXoXoXoXoXoXoXoXoXoXoXoXoXoXoXoXoXoXoXoXoXoXoXoXoXoXoXoXoXoXoXoXoXoXoXoXoXoXoXoXoXoXoXoXoXoXoXoXoXoXoX",
"oXoXoXoXoXoXoXoXoXoXoXoXoXoXoXoXoXoXoXoXoXoXoXoXoXoXoXoXoXoXoXoXoXoXoXoXoXoXoXoXoXoXoXoXoXoXoXoXoXoXoXoXoXoXoXoXoXoXoXoXoXoXoXoX",
"oXoXoXoXoXoXoXoXoXoXoXoXoXoXoXoXoXoXoXoXoXoXoXoXoXoXoXoXoXoXoXoXoXoXoXoXoXoXoXoXoXoXoXoXoXoXoXoXoXoXoXoXoXoXoXoXoXoXoXoXoXoXoXoX",
"oXoXoXoXoXoXoXoXoXoXoXoXoXoXoXoXoXoXoXoXoXoXoXoXoXoXoXoXoXoXoXoXoXoXoXoXoXoXoXoXoXoXoXoXoXoXoXoXoXoXoXoXoXoXoXoXoXoXoXoXoXoXoXoX",
"oXoXoXoXoXoXoXoXoXoXoXoXoXoXoXoXoXoXoXoXoXoXoXoXoXoXoXoXoXoXoXoXoXoXoXoXoXoXoXoXoXoXoXoXoXoXoXoXoXoXoXoXoXoXoXoXoXoXoXoXoXoXoXoX",
"oXoXoXoXoXoXoXoXoXoXoXoXoXoXoXoXoXoXoXoXoXoXoXoXoXoXoXoXoXoXoXoXoXoXoXoXoXoXoXoXoXoXoXoXoXoXoXoXoXoXoXoXoXoXoXoXoXoXoXoXoXoXoXoX",
"oXoXoXoXoXoXoXoXoXoXoXoXoXoXoXoXoXoXoXoXoXoXoXoXoXoXoXoXoXoXoXoXoXoXoXoXoXoXoXoXoXoXoXoXoXoXoXoXoXoXoXoXoXoXoXoXoXoXoXoXoXoXoXoX",
"oXoXoXoXoXoXoXoXoXoXoXoXoXoXoXoXoXoXoXoXoXoXoXoXoXoXoXoXoXoXoXoXoXoXoXoXoXoXoXoXoXoXoXoXoXoXoXoXoXoXoXoXoXoXoXoXoXoXoXoXoXoXoXoX",
"oXoXoXoXoXoXoXoXoXoXoXoXoXoXoXoXoXoXoXoXoXoXoXoXoXoXoXoXoXoXoXoXoXoXoXoXoXoXoXoXoXoXoXoXoXoXoXoXoXoXoXoXoXoXoXoXoXoXoXoXoXoXoXoX",
"oXoXoXoXoXoXoXoXoXoXoXoXoXoXoXoXoXoXoXoXoXoXoXoXoXoXoXoXoXoXoXoXoXoXoXoXoXoXoXoXoXoXoXoXoXoXoXoXoXoXoXoXoXoXoXoXoXoXoXoXoXoXoXoX",
"oXoXoXoXoXoXoXoXoXoXoXoXoXoXoXoXoXoXoXoXoXoXoXoXoXoXoXoXoXoXoXoXoXoXoXoXoXoXoXoXoXoXoXoXoXoXoXoXoXoXoXoXoXoXoXoXoXoXoXoXoXoXoXoX",
"oXoXoXoXoXoXoXoXoXoXoXoXoXoXoXoXoXoXoXoXoXoXoXoXoXoXoXoXoXoXoXoXoXoXoXoXoXoXoXoXoXoXoXoXoXoXoXoXoXoXoXoXoXoXoXoXoXoXoXoXoXoXoXoX",
"oXoXoXoXoXoXoXoXoXoXoXoXoXoXoXoXoXoXoXoXoXoXoXoXoXoXoXoXoXoXoXoXoXoXoXoXoXoXoXoXoXoXoXoXoXoXoXoXoXoXoXoXoXoXoXoXoXoXoXoXoXoXoXoX",
"oXoXoXoXoXoXoXoXoXoXoXoXoXoXoXoXoXoXoXoXoXoXoXoXoXoXoXoXoXoXoXoXoXoXoXoXoXoXoXoXoXoXoXoXoXoXoXoXoXoXoXoXoXoXoXoXoXoXoXoXoXoXoXoX",
"oXoXoXoXoXoXoXoXoXoXoXoXoXoXoXoXoXoXoXoXoXoXoXoXoXoXoXoXoXoXoXoXoXoXoXoXoXoXoXoXoXoXoXoXoXoXoXoXoXoXoXoXoXoXoXoXoXoXoXoXoXoXoXoX",
"oXoXoXoXoXoXoXoXoXoXoXoXoXoXoXoXoXoXoXoXoXoXoXoXoXoXoXoXoXoXoXoXoXoXoXoXoXoXoXoXoXoXoXoXoXoXoXoXoXoXoXoXoXoXoXoXoXoXoXoXoXoXoXoX"
};
