/* XPM */
static char *_4a45739cc1e4674ac8f83a942f9ec6a8I5AB633CmpiWJGU[] = {
/* columns rows colors chars-per-pixel */
"64 64 169 2 ",
"   c None",
".  c black",
"X  c #150B0C",
"o  c #1A0E0F",
"O  c #1C1111",
"+  c #17181A",
"@  c #141617",
"#  c #2A1615",
"$  c #241C1D",
"%  c #2D1918",
"&  c #311B1A",
"*  c #1C1E20",
"=  c #2C2C2E",
"-  c #27282A",
";  c #372929",
":  c #2F2F31",
">  c #2F3031",
",  c #343436",
"<  c #3B3B3C",
"1  c #45231F",
"2  c #442421",
"3  c #482623",
"4  c #442826",
"5  c #4D2926",
"6  c #4A2E2C",
"7  c #522B26",
"8  c #532D29",
"9  c #592E29",
"0  c #582D27",
"q  c #4C302E",
"w  c #5D322D",
"e  c #433B3C",
"r  c #4D373C",
"t  c #563637",
"y  c #60342F",
"u  c #623530",
"i  c #693732",
"p  c #663934",
"a  c #6C3A35",
"s  c #703C37",
"d  c #723D38",
"f  c #783E37",
"g  c #71413D",
"h  c #79423C",
"j  c #3F3F41",
"k  c #503B41",
"l  c #5D3E41",
"z  c #623F41",
"x  c #3F4142",
"c  c #434545",
"v  c #4D4D4E",
"b  c #5C4246",
"n  c #5F4348",
"m  c #4E4E5F",
"M  c #5B4953",
"N  c #555657",
"B  c #5C5C5C",
"V  c #644243",
"C  c #694547",
"Z  c #6C4945",
"A  c #6D4A4E",
"S  c #6A474A",
"D  c #754E4A",
"F  c #72514D",
"G  c #79514C",
"H  c #6E4C50",
"J  c #734F52",
"K  c #6F5457",
"L  c #765253",
"P  c #7C5653",
"I  c #7E5855",
"U  c #735A5F",
"Y  c #424D63",
"T  c #4F4F60",
"R  c #455168",
"E  c #4A566D",
"W  c #525263",
"Q  c #5F5C6A",
"!  c #515468",
"~  c #4C5972",
"^  c #525E75",
"/  c #665D6E",
"(  c #546076",
")  c #566279",
"_  c #5A667B",
"`  c #5D6075",
"'  c #67676C",
"]  c #636379",
"[  c #616070",
"{  c #737373",
"}  c #787979",
"|  c #82463F",
" . c #824740",
".. c #8C4C45",
"X. c #904F47",
"o. c #9C554D",
"O. c #885A5C",
"+. c #915F61",
"@. c #847775",
"#. c #8C7D7B",
"$. c #937F7C",
"%. c #5B6985",
"&. c #656981",
"*. c #6C6D85",
"=. c #696F89",
"-. c #63718E",
";. c #6F728A",
":. c #717087",
">. c #75738A",
",. c #7A768B",
"<. c #7A798D",
"1. c #7E7980",
"2. c #637390",
"3. c #6E7C97",
"4. c #6E7E9E",
"5. c #737C94",
"6. c #6F7FA0",
"7. c #76839C",
"8. c #7B869D",
"9. c #6F80A1",
"0. c #7081A1",
"q. c #7D89A1",
"w. c #7E8CA9",
"e. c #848485",
"r. c #87858A",
"t. c #8C8C8D",
"y. c #998D8B",
"u. c #878290",
"i. c #8B8D97",
"p. c #908D9D",
"a. c #8F9090",
"s. c #939493",
"d. c #9E9492",
"f. c #929699",
"g. c #9B9B9B",
"h. c #A09594",
"j. c #848FA6",
"k. c #828FA9",
"l. c #8590A7",
"z. c #8794AF",
"x. c #8895AF",
"c. c #8F99AD",
"v. c #8C91A0",
"b. c #919BAF",
"n. c #8996B0",
"m. c #919DB6",
"M. c #909BB0",
"N. c #9DA0A0",
"B. c #99A5BC",
"V. c #9BA6BD",
"C. c #9BA7BE",
"Z. c #9BA6BD",
"A. c #9CA8BF",
"S. c #9CA8BF",
"D. c #98A1B2",
"F. c #A2A2A2",
"G. c #AEAEAE",
"H. c #B0B0AF",
"J. c #B2B2B2",
"K. c #B9BABA",
"L. c #9CA9C0",
"P. c #A0ABC0",
"I. c #A1ACC1",
"U. c #A2ADC2",
"Y. c #C5C5C5",
"T. c #C9CACB",
"R. c #D6D6D6",
"E. c #E2E2E2",
"W. c #F4F4F4",
/* pixels */
"                                                                                                                                ",
"                                                                                                                                ",
"                                                                                                                                ",
"                                                                                                                                ",
"                                                                                                                                ",
"                                                                                                                                ",
"                                                                                                                                ",
"                                                                                                                                ",
"                                                    z.x.x.x.z.n.x.x.x.x.z.x.                                                    ",
"                                                    x.x.n.x.z.x.n.z.z.n.n.z.                                                    ",
"                                                    n.z.z.x.x.x.x.x.x.x.z.n.                                                    ",
"                                                    k.n.x.x.x.x.x.z.n.x.z.l.                                                    ",
"                            x.x.x.x.n.x.x.n.n.7.^ ) q.z.c.z.z.z.z.z.z.z.z.q.) ^ 7.n.n.x.x.x.x.x.x.n.                            ",
"                            n.x.x.z.z.x.x.n.n.7.^ ( q.m.m.m.m.m.m.m.m.D.m.q.( ^ 7.n.n.z.x.x.z.z.x.x.                            ",
"                            n.z.x.n.n.x.x.n.n.7.^ _ x.I.I.A.A.A.L.A.I.I.L.l._ ^ 7.n.n.n.n.n.z.n.z.n.                            ",
"                            k.x.x.x.z.x.x.n.x.7.^ ( l.Z.Z.B.B.B.Z.V.B.Z.L.l.) ^ 7.n.n.n.z.x.n.z.n.l.                            ",
"Y ( 7.n.n.n.z.x.x.n.n.7.^ ) q.n.x.x.x.z.z.x.n.7.^ ~ 3.w.w.w.w.w.w.w.w.w.w.3.~ ^ 7.n.n.x.z.z.z.x.n.0.) ( 7.n.n.n.z.x.n.x.n.7.( Y ",
"Y ( 7.n.n.n.n.x.z.n.n.7.^ ( 8.m.m.m.m.m.m.m.m.q.( ~ -.0.4.4.4.4.3.4.4.9.9.2.~ ( q.m.m.m.m.m.m.m.D.q.( ( 7.n.n.n.x.x.z.n.n.7.( Y ",
"Y ( 7.n.n.z.z.x.n.n.n.7.^ ) x.I.I.L.I.A.A.A.I.x.) ~ 2.6.4.4.4.4.4.4.4.4.4.-.~ _ x.A.P.A.A.P.A.P.U.l.) ~ 7.n.n.z.n.x.x.n.n.7.( Y ",
"Y ^ 7.z.n.n.x.x.x.n.n.7.^ ) j.Z.V.V.V.B.V.V.V.l.) ~ 2.0.0.4.4.4.4.4.4.9.0.2.~ ) l.A.Z.B.B.V.B.B.L.l.) ( 7.n.n.z.z.x.n.n.n.7.( Y ",
"Y ( 7.n.z.z.z.z.z.n.n.7.^ ~ 3.w.w.w.w.w.j.w.w.3.^ ~ 2.0.9.7.9.9.4.6.6.0.0.2.^ ^ 3.w.w.w.w.w.w.w.w.3.~ ( 7.n.z.z.z.z.z.z.n.7.( Y ",
"Y ) q.D.m.m.m.m.m.m.m.q.) ~ 2.9.4.4.4.4.9.9.9.-.~ ~ 2.0.9.9.9.9.6.6.9.0.0.2.~ ~ 2.7.4.4.4.4.4.4.9.2.~ ( q.m.D.m.m.m.m.D.m.q.( Y ",
"Y ) l.U.I.A.A.I.P.I.I.l._ ~ 2.9.4.4.4.4.4.7.9.-.~ ~ 2.9.9.9.9.9.0.9.0.0.0.2.~ ~ 2.6.4.4.4.4.6.9.9.-.~ ) x.I.I.A.L.L.L.U.U.l.) Y ",
"Y ) l.A.A.B.B.B.V.Z.L.j.) ~ 2.0.6.6.9.6.6.0.0.-.! T _ &.*.*.&.*.*.&.*.*.&.` m ! -.0.0.6.0.0.9.0.9.2.~ ) l.B.A.B.B.Z.Z.Z.Z.l.) Y ",
"Y ~ 3.w.w.w.w.w.w.w.w.3.~ ~ 2.0.9.9.0.0.9.9.0.=.M t r k b n n n n n n b k r r M -.0.0.9.9.9.0.0.0.2.~ ^ 3.w.w.w.w.w.w.w.w.3.~ Y ",
"Y ~ 2.9.4.4.4.4.3.6.4.-.! T ] =.*.&.&.&.&.*.=./ b 7 1 2 7 9 9 9 9 9 9 8 2 1 9 t / *.*.*.&.&.&.*.*.] m E -.6.4.4.4.9.4.4.4.-.~ Y ",
"Y ~ 2.9.6.4.4.4.6.6.6.=.M t l n n b k k l b n l t 7 2 2 8 9 w 9 9 w 9 8 2 2 7 w t S b b k k b n n l t M *.6.6.6.4.3.4.9.9.2.~ Y ",
"Y ~ 2.0.6.6.6.6.6.0.0.&.n 0 9 9 9 7 2 2 0 w w w y 9 5 5 9 w w w w w w 9 5 6 w w w w w 9 2 2 7 9 9 9 9 n *.9.9.0.9.9.9.9.0.2.^ Y ",
"Y ^ 2.0.0.0.0.7.6.0.0.*.n 9 9 9 9 7 2 2 w a i p i i w w u p p a a p a u w w u p p p i w 2 2 7 w 9 9 9 n *.9.9.9.6.6.7.0.0.2.^ Y ",
"Y E %.2.2.2.-.-.2.2.2.] V 9 w w w 9 5 8 i a s s a i w u a s d a a s a a y y a a a s a p 8 5 9 w w w w b ] 2.2.2.2.2.2.2.2.%.~ Y ",
"Y R E ~ ~ ~ ~ ~ ~ ~ ~ W z i i i i u 9 w p a a a a a w w a s g a d s s a u u i a a s a p w 9 i p i a i V W ~ ~ ~ ~ ~ ~ ~ ~ E Y Y ",
"Y E ) _ _ _ _ _ _ _ _ [ K D D D P D p w a a a s a a u w 8 8 7 8 8 8 8 5 2 5 u d s a a a u w i s a a a C Q _ _ _ _ ) _ _ _ ) E Y ",
"Y ^ 8.M.b.c.c.c.c.c.b.v.e.@.@.e.y.#.Z w i a a a a a u 8 & O o O o o o X X # w a s a a p w u a a s a a L u.m.M.c.c.c.c.b.M.8.( Y ",
"Y _ j.L.Z.V.V.V.V.A.A.M.f.a.s.N.G.d.F w i s a a a p 8 & $ + - = : , < c c e q w i s s p w u p a a a a L p.L.V.V.V.V.V.Z.A.l.) Y ",
"Y ^ 3.w.k.w.w.w.w.w.w.j.i.d.h.G.J.d.F w i a a g g w % $ , N { t.r.g.K.T.T.g.< # 9 s s a u u a a a a a J <.w.w.w.w.w.w.w.k.3.^ Y ",
"Y ~ 2.4.4.4.4.4.4.4.4.3.1.#.y.d.d.#.Z w i s a i w 4 $ : B } e.t.r.f.K.R.E.J.' e 6 w p p w u p s a a a H *.6.6.4.4.4.4.4.6.-.~ Y ",
"Y ^ -.6.4.4.4.4.4.4.6.;.U G P O.I F p w i a g w & $ < B t.e.v = > , x N { g.K.g.e % 9 a u u a a s a a D *.6.6.6.4.4.4.4.6.2.~ Y ",
"Y ~ 2.6.0.4.4.4.4.9.9.*.A i i i i i w y i g s 7 o @ c { F.e.- . . . . X < e.E.T.j X 7 a u w p a a a a A :.6.6.6.4.4.4.0.0.2.~ Y ",
"Y ~ -.0.9.4.4.6.9.9.9.:.A i i a a p y y a a g 8 o @ c { N.r.: . . . . @ e e.E.T.c X 5 a u w a a a i a H :.6.6.6.4.4.4.0.0.2.~ Y ",
"Y ^ 2.0.9.6.6.7.9.9.9.:.D a s a a a y y i i w 4 $ : N e.F.a.v - = = : < B a.R.Y.' e q 9 w u a g G G f A :.6.9.9.0.0.4.0.0.2.^ Y ",
"Y ^ 2.0.0.4.0.0.9.9.0.;.H a a a a a w u a w & $ < B e.F.G.F.a.e.e.e.e.t.s.F.K.Y.Y.g.r # 3 y i G $.#.G A :.0.0.6.0.7.6.6.0.2.^ Y ",
"Y E %.2.2.2.2.-.2.2.2.] A a a s a i u u a q O + c { h.J.H.G.J.J.J.J.J.J.H.G.G.Y.W.Y.x X 2 y i I h.d.O.S ] 2.2.2.2.2.-.2.2.%.~ Y ",
"Y R ~ ^ E ~ ~ ~ ~ ~ ~ W V s a a a a w w a 8 O + c { g.H.G.G.G.H.J.J.J.J.H.G.F.Y.W.Y.c X 2 y i I h.h.I z W ~ ~ ~ ~ ~ ~ ~ ^ E R Y ",
"Y R ^ _ _ _ _ _ _ _ _ Q C a a a a a u u a 8 O + c { g.H.G.G.G.F.a.e.e.s.F.G.G.Y.W.Y.x X 2 u i I h.d.P V Q _ _ _ ) _ _ _ _ ^ E Y ",
"Y ^ 8.M.b.b.c.c.b.c.M.u.L a a s a a u w a q O + c { g.G.G.G.H.t.v - - v a.H.G.Y.W.Y.c X 2 w i I d.d.O.D u.n.b.b.c.c.c.b.b.8.^ Y ",
"Y ) l.L.A.Z.Z.Z.Z.L.L.p.P i a a s p u u a 8 # + c { g.G.G.H.J.e.= . . = e.H.G.Y.E.J.j X 2 w i I d.d.G F p.L.Z.Z.Z.Z.B.L.Z.l._ Y ",
"Y ^ 3.w.w.w.j.w.w.w.w.<.K a a a a p u u a 8 o + c { g.G.G.H.H.e.= . . = e.J.H.J.Y.s.> X 2 y i I d.h.P D ,.w.w.w.w.w.w.w.k.5.^ Y ",
"Y ^ -.4.4.4.4.4.4.6.6.*.A a a s a a w w a 8 O + c { g.H.G.H.J.e.= . . = e.H.H.H.G.e.= X 2 u i I h.h.P A *.6.6.4.4.4.4.6.6.-.~ Y ",
"Y ~ -.6.4.4.4.4.4.6.6.*.A a s a s p w u s 8 O + c { g.G.G.J.J.e.: . . = e.H.H.H.H.e.= o 2 y i I h.h.P A *.0.6.4.4.4.4.4.6.2.^ Y ",
"Y ~ 2.6.0.4.4.4.4.0.9.:.A a a a s p w u a 8 O + c { g.H.G.G.G.a.v - - v a.H.H.H.H.e.= X 2 u i F $.$.G A *.9.0.6.6.4.4.0.0.-.~ Y ",
"Y ~ 2.6.4.4.4.4.4.0.0.:.D i s a a p w u p 8 O + c { g.G.G.G.G.F.a.e.e.a.F.G.G.H.J.e.= X 2 u a g G G d A *.9.9.6.4.4.4.6.4.2.~ Y ",
"Y ^ 2.0.0.0.0.6.0.0.0.:.H s a a s a u u s q O + c { g.J.J.H.G.H.J.J.J.J.H.G.H.J.J.e.: X 2 u a a a a a A :.0.0.9.6.0.0.0.0.-.^ Y ",
"Y ^ 2.0.0.0.6.6.9.9.9.:.H a i s a a w u a 8 O + c { N.J.J.J.H.J.J.J.J.J.J.J.J.J.K.r.= X 4 u a a a i i D *.6.9.9.0.4.6.6.0.2.^ Y ",
"Y E %.2.2.2.2.2.2.2.2.] S a i a a i w u p w & $ < N { e.e.e.e.e.e.e.e.r.e.e.e.e.e.' > % 5 u a a a s s A ] 2.2.2.2.2.2.-.2.%.~ Y ",
"Y R E ~ ~ ~ ~ ~ ~ ~ ~ W z a a a a i u w p a w 4 $ * - = : : = : : = = = = = = = = : q 9 w w a a s a s z W ~ ~ ~ ~ ~ ~ ~ ~ ~ Y Y ",
"Y E ^ ] _ _ _ _ _ _ _ / L D D G P F p w p s s w & O o o o o o o o o O o X o o o o & w a u w p s a a i Z / _ _ _ _ _ _ _ _ ` E Y ",
"Y ^ 8.M.b.c.c.c.c.M.c.v.e.@.@.#.y.#.C w p a s a w 7 4 3 5 8 7 7 8 7 8 5 4 3 5 8 5 w p a w w p a a a a L u.M.M.c.x.b.c.b.b.8.( Y ",
"Y _ j.L.V.V.V.V.V.V.A.D.f.a.d.b.G.d.F w i a a s a a u u a s s s s s s a u u a s s s a a u u p s a a a L p.L.L.V.V.V.V.Z.Z.l.) Y ",
"Y ^ 3.k.w.w.w.w.w.w.w.q.a.s.F.G.J.d.L w i a a a s a u w a a f s s s s p u u i s s s a p w u a a a s a J <.w.w.w.j.w.w.w.k.3.^ Y ",
"Y ~ 2.4.4.4.4.4.6.4.6.3.} #.y.d.d.#.C w p a s a a p y y a a a a a a a p w w a a a s a i u w p s a a a H *.6.6.4.4.4.4.4.6.-.~ Y ",
"Y ~ 2.6.4.4.4.4.4.6.6.:.U D G I P D p w a s a s a a u y i a a s a s a p w w p s s a a i w u i a a a a A *.6.6.4.4.4.4.4.6.2.~ Y ",
"Y ~ -.0.9.6.4.4.4.9.0.:.L h f h f a u u s f f Z z f u u s h Z h f h Z d i u f Z h f h f u u d h h f f L ;.6.6.6.4.4.4.0.0.2.^ Y ",
"Y ~ 2.0.6.6.4.4.6.0.0.>.O.| ....X. .i i  .X.X.X.X. .i i  .X.X.X.X.X.X. .i i  .X.X.X.X.D i p  .X.X.X.X.O.>.6.0.4.4.6.6.6.7.2.~ Y ",
"Y ~ 2.7.6.6.7.4.4.9.7.,.+.o.o.o.o...a a ..o.o.o.o...i a ..o.o.o.o.o.o...a i ..o.o.o.o...a a ..o.o.o.o.+.,.6.7.0.4.4.6.6.6.2.~ Y "
};
