/* XPM */
static char *f7c3d9b38d4945a98b19e04f137a08e3WOdVKqjMHmIhhl87[] = {
/* columns rows colors chars-per-pixel */
"64 64 153 2 ",
"   c None",
".  c #010101",
"X  c #090900",
"o  c #0A0A0C",
"O  c #100F06",
"+  c #131206",
"@  c #191700",
"#  c #191802",
"$  c #171608",
"%  c #181709",
"&  c #18180A",
"*  c #141415",
"=  c #17171D",
"-  c #17181B",
";  c #1B1B1B",
":  c #27260D",
">  c #28270E",
",  c #2A290C",
"<  c #312F07",
"1  c #302E0C",
"2  c #35330C",
"3  c #38360F",
"4  c #20201F",
"5  c #28271B",
"6  c #29281B",
"7  c #383611",
"8  c #3D3A12",
"9  c #3E3C1B",
"0  c #1D1D22",
"q  c #242424",
"w  c #2A2A2A",
"e  c #323225",
"r  c #2F3032",
"t  c #343436",
"y  c #333439",
"u  c #3D3D3D",
"i  c #413E12",
"p  c #403F39",
"a  c #434014",
"s  c #4F4C11",
"d  c #474418",
"f  c #524E15",
"g  c #545117",
"h  c #565319",
"j  c #59561E",
"k  c #625E1C",
"l  c #65611E",
"z  c #6E6A1F",
"x  c #444220",
"c  c #4B4927",
"v  c #47452F",
"b  c #4B4928",
"n  c #524F27",
"m  c #5E5B22",
"M  c #56532B",
"N  c #494730",
"B  c #4B4A33",
"V  c #42423C",
"C  c #49483F",
"Z  c #5D5A32",
"A  c #615E26",
"S  c #605D34",
"D  c #666221",
"F  c #6A6623",
"G  c #6E6A23",
"H  c #66622A",
"J  c #726E24",
"K  c #757126",
"L  c #7F7A25",
"P  c #767228",
"I  c #7B772B",
"U  c #7E792A",
"Y  c #3D3D43",
"T  c #434343",
"R  c #4A4A4C",
"E  c #5C5B44",
"W  c #57564A",
"Q  c #58584C",
"!  c #4C4D52",
"~  c #545455",
"^  c #5B5B55",
"/  c #525359",
"(  c #5B5B5C",
")  c #605F48",
"_  c #63635D",
"`  c #5E5E62",
"'  c #636364",
"]  c #6B6B66",
"[  c #656569",
"{  c #6C6C6D",
"}  c #7A7A6E",
"|  c #6F6F73",
" . c #6F7072",
".. c #737374",
"X. c #75757B",
"o. c #77787A",
"O. c #7C7C7D",
"+. c #817C27",
"@. c #817C29",
"#. c #8B852E",
"$. c #8E882F",
"%. c #918C2F",
"&. c #938D30",
"*. c #9F9935",
"=. c #A09A36",
"-. c #A69F38",
";. c #A6A038",
":. c #AAA439",
">. c #AFA83B",
",. c #B1AA3B",
"<. c #838383",
"1. c #868689",
"2. c #8E8E8C",
"3. c #92928F",
"4. c #8E8E91",
"5. c #959595",
"6. c #9A9A95",
"7. c #969699",
"8. c #9A9A9B",
"9. c #9F9FA1",
"0. c #A3A3A4",
"q. c #A6A6A9",
"w. c #AAAAAC",
"e. c #B0B0AF",
"r. c #AEAEB1",
"t. c #B3B3B3",
"y. c #BCBCBC",
"u. c #C0BFBE",
"i. c #C0C0BE",
"p. c #BFC0C1",
"a. c #C3C3C3",
"s. c #CBCBCB",
"d. c gray84",
"f. c #D3D3D3",
"g. c #DADADB",
"h. c gray86",
"j. c #DADADA",
"k. c #DBDBDC",
"l. c gainsboro",
"z. c #DCDCDD",
"x. c #DEDEDE",
"c. c #E1E1E1",
"v. c #E3E3E4",
"b. c #E7E7E7",
"n. c gray88",
"m. c #E7E7E8",
"M. c #E9E9E9",
"N. c #EBEBEB",
"B. c #F3F3F3",
"V. c gray96",
"C. c gray98",
"Z. c #F8F8F8",
"A. c white",
/* pixels */
"                                                                                                                                ",
"                                                                                                                                ",
"                                                                                                                                ",
"                                                                                                                                ",
"                                                                                                                                ",
"                                                                                                                                ",
"                                                                                                                                ",
"                                                                                                                                ",
"                                                                                                                                ",
"                                                                                                                                ",
"                                                                                                                                ",
"                                                                                                                                ",
"                                                                                                                                ",
"                                                                                                                                ",
"                                                                                                                                ",
"                                                                                                                                ",
"                                  :.:.:.:.:.:.                                                                                  ",
"                                =.=.=.*.=.=.=.=.                                                                                ",
"                                #.#.#.#.#.#.#.#.                                                                                ",
"                              U J l k k j k l J U                                                                               ",
"                          :.&.K h 8 3 , < 2 i g K &.:.                                                                          ",
"                        :.*.#.F d > & O + % , d F #.*.:.                                                                        ",
"                        &.#.I H c e w 0 0 q e c H I #.%.                                                                        ",
"                      L G D A Z E _ ` ` ` ' ^ E S A l z L                                                                       ",
"                  :.&.z f i d E } 5.q.e.r.q.5.} E d i s z %.:.,.,.:.:.:.:.:.:.:.:.:.:.:.:.:.:.:.:.:.:.:.:.:.:.:.:.:.:.          ",
"                :.*.#.l 8 > e ^ 2.i.j.b.b.h.i.2.^ e > 8 k #.*.-.-.=.=.=.=.=.=.=.=.=.=.=.=.=.=.=.=.=.=.*.=.=.=.=.=.=.=.=.        ",
"                &.#.I A x e u [ 5.a.h.b.b.h.a.7.[ u e i A I #.#.#.#.#.#.#.#.#.#.#.#.#.#.#.#.#.#.#.#.#.#.#.#.#.#.#.#.#.$.        ",
"              L K F H S E ^ [ o.2.0.w.e.e.w.9.4.o.[ ^ Q Z A k k k k k k k k k k k k k k k k k k k k k k k k k A D D F K @.      ",
"          =.#.J h d c ) } 3.6.4.O.{ ' _ ( ' { O.4.7.3.} E d 2 < < 2 2 2 2 2 2 2 1 2 2 2 2 2 2 < 2 2 2 < 2 2 2 7 7 8 i m K $.=.:.",
"        :.=.#.l 8 > e ( 6.i.a.9.{ u q - ; q u { 9.a.u.6._ e & + + $ & & $ $ % $ $ $ % % & & & $ $ $ & & & & $ + + $ > d F #.=.:.",
"        :.=.#.k 2 % q ( 9.s.f.0.` q . . . . q ( 0.f.f.e.X.T q ; ; q q q q q q q q q q q q q q q q q q q 0 0 0 * o . $ 8 H #.=.:.",
"        :.=.#.k 2 + ; / 7.s.s.7.~ ; . . . . - ~ 7.s.d.u.7...` ( ( ` ` ` ` ' ( ' ` ` ` ` ( ( ( ( ` ` ` ` ` ` R r 0 o + 7 D #.=.:.",
"        :.=.#.k 2 + ; R 1.t.e.2.R - . . . . * R <.t.s.s.y.r.q.q.q.q.q.q.q.q.q.q.q.q.q.q.9.9.0.0.0.q.q.q.q.9.1.` y * + 7 A #.=.:.",
"        :.=.#.A 3 $ ; T o.9.9.O.T ; . . . . ; V ..9.y.f.f.d.k.k.h.h.h.h.h.h.h.l.h.j.h.h.h.h.h.j.k.j.z.c.v.k.p.1.! ; $ 2 k #.=.:.",
"        :.=.#.k 3 $ - u ..5.5...T ; . . . . - u { 6.t.a.f.f.k.k.l.h.h.h.h.h.h.h.j.j.c.b.V.C.C.B.b.l.c.N.Z.Z.l.9.( q $ 2 k #.=.:.",
"        :.=.#.k 3 + - Y | 5.5...T * . . . . * u { 7.w.t.r.q.q.q.q.q.q.q.q.q.q.q.0.w.y.f.N.A.A.N.s.y.y.d.B.A.M.w.` q & 2 k #.=.:.",
"        :.=.#.k 2 + * Y ..7.7...V * . . . . * u ..7.0.6.<.{ ` ( ( ' ` ` ` ' ` ( ( ' O.q.d.Z.V.f.0.O.O.0.d.Z.M.r.[ q & 2 k #.*.:.",
"        :.=.#.D 7 $ ; Y  .5.5. .T ; . . . . - T ..5.7.<.( t q q q q q q q q q ; ; w T O.t.c.l.e...T T ..e.c.k.q.` q $ 2 k #.*.:.",
"        :.=.#.D i > 5 V ' <.<.| R w - O + = q R { <.<.] C 6 % + + $ % % & $ $ X . . q ~ 7.y.y.2.! 4 4 R 3.y.y.4.! 4 $ 2 k #.*.:.",
"          =.#.J j d x B W ' [ ` ~ R T T T T R ~ ` [ _ W N 8 2 < < 2 2 2 2 2 , @ . . o y ' 1.1.` t o o t ' <.1.[ y - + 2 l #.*.:.",
"              @.K F A M B p T ! ` { ..o.o...{ ( ! T V v n m k k k k k l D k f 3 @ . . 0 y R R y = . . - y R R t 0 o + 7 A #.=.:.",
"                &.#.U m 9 6 w T [ <.7.8.8.5.1.' T w 5 9 m I #.$.$.#.#.$.$.#.P h 1 + . o - ; ; - o o . o * 4 ; - o . $ 8 D #.=.:.",
"                :.=.#.l a > 6 u _ <.7.8.8.7.<._ u 6 > i A #.*.-.-.=.=.-.;.*.$.F i : % + + $ $ $ & $ & & & & $ + + $ > d F #.=.:.",
"                  :.&.J g a i B W ' | ....{ ] Q B i i f J %.:.,.>.:.:.>.,.:.&.P m d 9 7 3 2 3 3 7 8 8 7 3 2 2 3 7 8 d j K $.=.:.",
"                      +.J D A M B V Y Y Y Y V B M A D J +.                    @.K F H D k k k D D D D D l k k k A H F K @.      ",
"                        %.#.U A x 5 - * * ; 6 x A I #.%.                        $.#.#.#.#.#.#.#.#.#.$.$.#.#.#.#.#.#.$.$.        ",
"                        :.=.#.F d > $ O O & > d F $.*.:.                        *.=.*.=.=.=.=.=.=.=.=.=.=.=.=.=.=.=.=.=.        ",
"                          :.%.J j i 7 2 1 7 a h J &.:.                            :.:.:.:.:.:.:.:.:.:.:.:.:.:.:.:.:.:.          ",
"                              @.J D k A k k F J +.                                                                              ",
"                                $.$.#.#.#.#.#.#.                                                                                ",
"                                =.=.=.=.=.=.=.=.                                                                                ",
"                                  :.:.:.:.:.:.                                                                                  ",
"                                                                                                                                ",
"                                                                                                                                ",
"                                                                                                                                ",
"                                                                                                                                ",
"                                                                                                                                ",
"                                                                                                                                ",
"                                                                                                                                ",
"                                                                                                                                ",
"                                                                                                                                ",
"                                                                                                                                ",
"                                                                                                                                ",
"                                                                                                                                "
};
