/* XPM */
static char *_606530d311c4005978924f131d54358YsJMbWAdmMxwxv2l[] = {
/* columns rows colors chars-per-pixel */
"64 64 131 2 ",
"   c #563F3D",
".  c #55403E",
"X  c #59413E",
"o  c #4E3E46",
"O  c #513F44",
"+  c #524046",
"@  c #5C4342",
"#  c #554248",
"$  c #5B4449",
"%  c #614642",
"&  c #674945",
"*  c #6B4B47",
"=  c #624749",
"-  c #664A4C",
";  c #6A4B4B",
":  c #6A4B4A",
">  c #684A4A",
",  c #6C4B49",
"<  c #6B4C4A",
"1  c #6D4C48",
"2  c #6C4C49",
"3  c #6D4C49",
"4  c #6E4C48",
"5  c #6F4D48",
"6  c #6C4C4B",
"7  c #6D4D4B",
"8  c #6E4D4A",
"9  c #6E4D4B",
"0  c #6F4D4B",
"q  c #6F4E4B",
"w  c #684B4D",
"e  c #694B4D",
"r  c #684B4E",
"t  c #6D4D4D",
"y  c #6E4E4D",
"u  c #704E49",
"i  c #714E49",
"p  c #724E49",
"a  c #714E4B",
"s  c #714F4B",
"d  c #734F4A",
"f  c #724F4B",
"g  c #734F4B",
"h  c #744F4A",
"j  c #744F4B",
"k  c #714F4C",
"l  c #724F4C",
"z  c #734F4C",
"x  c #724F4D",
"c  c #714F4F",
"v  c #724F4F",
"b  c #744F4C",
"n  c #75504A",
"m  c #76504B",
"M  c #77514B",
"N  c #74504C",
"B  c #75504C",
"V  c #75504D",
"C  c #76514C",
"Z  c #77514C",
"A  c #76514D",
"S  c #77514D",
"D  c #78514C",
"F  c #78524C",
"G  c #79524C",
"H  c #78524D",
"J  c #79524D",
"K  c #7A524D",
"L  c #7A534D",
"P  c #78524E",
"I  c #79524E",
"U  c #78524F",
"Y  c #7A534E",
"T  c #7B534E",
"R  c #7D544F",
"E  c #7E554F",
"W  c #714F50",
"Q  c #715050",
"!  c #725050",
"~  c #765250",
"^  c #775250",
"/  c #765251",
"(  c #775251",
")  c #775352",
"_  c #795350",
"`  c #785352",
"'  c #7D5550",
"]  c #7E5550",
"[  c #7F5550",
"{  c #7F5651",
"}  c #7D5553",
"|  c #7F5652",
" . c #7E5653",
".. c #805650",
"X. c #815650",
"o. c #805651",
"O. c #815651",
"+. c #815751",
"@. c #825751",
"#. c #835751",
"$. c #815752",
"%. c #825752",
"&. c #835752",
"*. c #835852",
"=. c #845852",
"-. c #855953",
";. c #865953",
":. c #875953",
">. c #875A53",
",. c #835854",
"<. c #845955",
"1. c #855955",
"2. c #865954",
"3. c #875954",
"4. c #875A54",
"5. c #865A55",
"6. c #865A56",
"7. c #885A54",
"8. c #885A55",
"9. c #895B55",
"0. c #8A5B55",
"q. c #8B5C55",
"w. c #8A5C56",
"e. c #8B5C56",
"r. c #8C5C56",
"t. c #8D5D56",
"y. c #8C5C57",
"u. c #8C5D57",
"i. c #8D5D57",
"p. c #8E5D57",
"a. c #8E5E57",
/* pixels */
"o o # $ : s b F F D b F F F F D F D b D F D s : $ O o o o + + o o + # $ = N C C D D D F D b F F D F D D F b s : $ + o o o + + + ",
"o + # $ : s F F D D D F D b F b F b F F F D s : = # # o o # + o o + # $ w m C F F F b F F F b D b F b D F D j : = # # # + o + + ",
"# $ $ = : s b F D F F F b D F D F D D F D F b 6 - $ # # # o + # + # $ - 6 s F F D b F b D F D F F F F F F D v 6 = $ # # # + + o ",
"$ $ = : 0 b F D D b D b F F F b F b D F D b b v t r - $ # # # # # $ - - 0 C C F D D F D b F b F D b D D M M j v t e - $ # + + o ",
": : : 0 s b D D b D b D F F F D D b F b F C C C _ / Q - $ $ # # $ > : s s C C F F F D F F b F b b F b F F D F _ / / Q r $ # # o ",
"s s s b b C F F F F F F D b F b F F F D b F F ] &.,. .Q - # # $ > 6 s b m C F C b D b F F D F D D F D F F b F F <. .} Q r # # o ",
"C C C F F b F b F D b F b D F D D b F C F F R &.3.0.<./ r $ # $ = j D F F F b F F F F b D b F F b D b C C D F &.3.6.6.) r # o o ",
"F F F F F F F D F b D F F F F b F F b C F b F &.3.e.3.) - $ # $ : j D F F b D F b D F D F F b D F F F C C F R &.3.a.6.) r # + o ",
"F F D D b D b D F D b F F F F D D b F F C F F &.0.0.<.` w $ # $ : s F F F D D F D F D b F F D F F F C C C F F &.3.u.3.) r $ + o ",
"D b D F F F F F F b D F D b F b F F F b F b F X.3.a.<./ - $ # $ = j F F F F b F b F F F b D b F D b F C C C F &.3.e.3./ r $ + o ",
"D D b F F D b F F F F F b D F D D b F C C b R X.3.0.<./ - $ # = : s F F D b F b F b D b F F F b b F F C C C F &.3.e.<./ - # + o ",
"F b D F F b D F D b D b F F F b F F b C C F F &.3.0.3./ - $ # $ : s D F D D F D F D F F b D F D D F C C C F F X.3.e.<./ r $ o o ",
"F F F D b F F F b D b D F F F D F C F C C m Y *.3.e.3./ - $ # $ > s D F D D F F D b F F D b F F b D b F C F F &.3.3.<.) - # + + ",
"D b F b D F D b F F F F D b F b C F C C C m Y R 3.e.3./ - $ # $ > s D F F b b D F F b D F F b D F F F C C C Y &.6.u.<.) r $ + o ",
"b D F D b F b D F D b F b D F D F C F C C C Y &.3.0.<./ - $ # $ > s D F D D D F D F D F D F D F F F b F C F Y *.6.e.6.) r # + o ",
"F F F b D F F F F b D F F F F b C F C C m C Y ] 3.e.3./ e $ # $ > s b F D D b F b F b F b F b F D b F C m m F ] ;.e. .) r # + o ",
"F D F F D F D b D b F b F F F F D b F b D b F &.3.0.<./ - $ # $ : s F F F F F F D F D F D F F C b D b F C C F &.;.0.<./ r $ + o ",
"F b b D b F F F F F F D b D b F F F F b C F F &.3.0.3./ - $ $ $ : v F F D b D b b F b F b F b F F F F C C F F &.3.0.3./ r $ + o ",
"F D b D F b D b F b b F F F D F D F F D F F ] &.3.u.<./ - $ # $ > s b F D D F F F F F b F F F C D D b F F F R &.0.0.3./ r # + o ",
"D D F F F F C F C C F C C C b C b C D F R R &.:.u.a.<.) r # # $ > v D F D D C C F b C C F b C C b D F F F R &.;.0.i.3./ r # o o ",
"F F D D D C C C C C C F C b C j C C C Y ] &.3.e.a.a.3.) - $ $ $ > s M M D D b b C F C C C C C C b F F R ] &.3.e.a.a.3.` r $ + o ",
"F F b M b F D F C F F b F D F D C F F R &.3.e.i.a.u.<./ - $ $ @ > s D D F F F F F b b F C C F C C F F R &.3.e.a.a.u.<./ r $ + o ",
"j s j j C F F F _ F F F F R F F F R Y *.3.e.i.i.e.3.] Q $ $ # $ & 6 j M F F F F _ F R F F Y F F F F R &.3.e.e.e.u.3. .Q - # + o ",
"* * s j F ] &.&.] &.&.&.] &.&.X.] &.&.3.e.i.e.0.*.] C w $ $ # @ % * 5 j F ] &.&.&.] &.&.&.] &.&.&.&.&.2.e.i.a.0.;.` Q r $ + + o ",
"% % * 5 F &.3.0.3.3.3.3.>.>.>.>.3.3.0.e.i.i.i.;.F 5 * % # + + # @ % * j R &.;.>.:.:.:.:.:.>.3.3.;.;.3.e.i.i.e.*.Y s * % $ # + o ",
"X % % * F ;.0.e.e.0.e.e.>.q.r.r.0.0.e.e.i.i.;.R s & @ @ + + + + # @ % * M :.0.0.q.q.q.q.>.q.0.0.e.e.e.i.i.i.3.R 5 & @ @ + + + + ",
"  X % * j ] ;.>.3.3.;.;.>.>.=.:.3.3.3.3.;.;.&.m * % + + + + + + O X % * v &.;.3.:.:.:.:.>.;.;.3.;.3.;.;.6.;.] m * @ + . + + + + ",
"O O @ % 0 C F R Y Y Y F L L G G Y Y Y F R F s 0 % X +   o + + o O O @ % 6 C R F X.G G G R F F R Y Y Y R Y Y m 0 % @ . + o + + o ",
"O O @ @ % * * * 0 * 5 * 5 * * * 2 * * * * * & % @ # + o + + + + + + @ @ % * * * & * * & * * * 5 * 1 1 * * * & % $ + + o + o + + ",
"+ + + + @ @ % % % @ % % % % % % % @ % % % % @ @ + # + + + + + + + + + + @ @ % % % % % % % % % % @ % % % % % % X # + + + + + + + ",
"+ O + + @ @ @ @ X X % X X % X % X X % % X % X @ + O + + o + + + o + O # @ @ X % % % % X X % % X X % X X X % X + + + + + + + + o ",
"O + # # @ @ % % & % % % % % % % & % % % % % % @ @ + o o + + + o o + + # @ % % % % % % % % % % % % % % & % & % $ + + + o o + + + ",
"o o # # @ * * * * & * * * * * * * & * * * * : % # + + + + + + + o + + $ @ & * * * * * * * * * * * * * * * * & @ @ # o o o o + + ",
"o + # $ > u j j j j j j p s j j j j j j j j 0 = $ + + + + + + + + + $ $ - 0 N N j s j j p s j j j 5 j p j j 6 : $ # # # + + + + ",
"# # @ = : v F F M M F F M M b F M M F F M m b 6 r # # # + + + + + # $ = 2 N m m D D D D M M F D F M M M F F b 6 = $ $ # # o + o ",
"$ = = : 6 j F F R M F F M M F F M M F F F F b v Q r r $ # + # # # $ = 2 0 C F F F F F F M M F F F G M G F F C v t w - $ # # # o ",
": : 2 0 b C F F M F D D F D D D M F D D F F F _ ) ) ) r $ # # $ = = : s N C C C F D D F F F D D F D F F D D F F / ) Q r $ # # o ",
"v s s N b C F b M M D D F b D D F F D D F C F ]  . .} Q $ $ # $ = 0 s b C C F C D F b F D b D F D D b F D D F R  .6.} Q r # + o ",
"F C C F b F F b F b D b F D F F F b D b C F F &.<.6.6.) - $ $ @ : s D F F F C F b F b D D D b F D b F F b b R &.<.u.6.) r # + o ",
"F F F F D D F D F D F F F b D b F D F F C C _  .u.u.6.) r $ # $ : s D F F C F C D F F F F b D F D D F b F F F &.3.u.6.) r # + o ",
"D D D D b D b F F D b D b F F D D b b F C b R &.3.e.6.) r $ $ $ : s F F F F D F F F F D b F F F F F C C C F F &.3.u.3.) r $ + o ",
"F b D F F F D F F b F F D F F b F F F C C F F X.3.e.<.) - $ # $ = b F F F b D b D b F b D F D b D b F C C C F &.3.0.3./ r $ + o ",
"F F F F F F b F F D F F b D b D D F D C b F F &.3.e.3./ - $ # $ : s F F D D b D b D F D b F b D b F F C C C F &.3.e.<./ r # + o ",
"D b D b D b D F F b D b F F F F b F b F C C F &.3.0.3./ - $ # $ : s F F D F F F F F F b D F F F D F C C C F F X.3.e.3./ r # o o ",
"F F F F b D b F F D b D F F F F F F F C C F F &.3.e.<./ - $ # = > s F F D D b F F D b F F D b F b D b F C F F &.3.u.<.) r $ + + ",
"D b D b F F D F F b F F D b D b D b F C C F F &.3.0.<./ - $ # $ > s b F D D D F F b D F F b D F F F F C C C Y &.3.6.<.) - # + + ",
"b F F D F F b F F D F F b F F D b F D b b F F &.3.0.<./ - $ # $ > s D D D F F F F F F F F F F F F F b F C C Y *.6.e.6.) r # + o ",
"D F F b D b D F F b D b D F F b D F F C M j F &.3.w.3./ - $ # $ > s D D D b D b D b D b D b D b D b F C m C F ] ;.e. .) r # + o ",
"b D b F F F D F D b F F D F D b F D b C b F F &.:.0.3./ r $ # $ : s F F F F F F D F D F D F F C b D b F m C F R >.0.<./ r $ + o ",
"F F D F b D b F F F b F b F F F F b F C b F F X.3.0.3./ r $ # $ : v F F D b D b b F b F b F b F F F F C C F R &.0.0.3./ r $ + o ",
"b D b F F F C F D F F F b F D b F F F F F F ..&.3.w.3./ - # # = > s b F D D F F F F F b F F F C D D b F C F R &.;.e.3./ r # + o ",
"F D D F b F C C b C b C F C C F C b F F R R &.:.u.u.3./ - $ $ @ > v D F D D C C F b C C F b C C b D F F Y R &.;.e.i.3./ - $ o o ",
"F F F F F b C C C b F b C F C j m C F R ] *.;.e.a.a.3./ r $ # $ > s M M D D b b C F C C C C C C b F F R ] &.3.e.a.a.<.) r # # + ",
"D F M M F F C b F D F D F b F F C F F ] *.;.e.i.a.w.3./ - $ # $ > s D D F F F F F b b F C C F C C F F R &.3.e.a.a.a.<./ - # + o ",
"j j j j D F R F _ F _ F _ F F R F Y Y *.3.e.i.i.w.3.] W - # # $ & 6 j M F F F F _ F R F F Y F F F F R &.3.e.e.i.u.3. .Q - # + + ",
"* * 1 j F R &.&.&.&.....&.......R &.*.3.e.i.e.3.2.] b e $ # # $ % * 5 j F ] &.&.&.] &.&.&.] &.&.&.&.&.2.e.i.a.3.<.] Q r $ + + o ",
"% & * 5 M &.;.>.0.2.3.3.3.3.3.3.>.>.0.0.a.a.i.:.M s * % # # # + @ % & p R &.>.>.>.>.>.>.>.>.3.3.3.3.3.e.i.i.e.;.F s * % @ # O o ",
"X X % 0 F ;.e.i.0.0.0.0.e.e.e.e.r.>.0.r.a.a.;.R s * @ X + + + + # @ % 6 G :.0.r.q.q.q.q.0.0.0.0.e.e.e.i.i.e.3.R s & % X # + + + ",
"X X @ = C ] ;.>.3.3.3.3.;.3.;.;.>.>.=.:.3.3.&.j * @ . + + + + + O X % * j &.:.;.>.:.:.:.;.;.;.;.;.;.3.3.3.;.] C * %   + + + + + ",
". + @ % 0 C Y M F ] F F Y Y Y F L L L G F F v 6 % @ + O O + o + O O @ % 6 b R F L G G G F R F R Y Y Y Y Y Y m 0 % + O O o + + o ",
"O + + @ % : * 1 5 * 1 1 * 1 1 * & * 5 * 1 * & & @ + + + + o + + + + + @ % : * 1 * * * * * * * * * 1 * 1 & 1 & % # # + o + o + + ",
"+ + + @ @ @ % % % % % X @ % % % % % % % % % @ @ # + + + + + + + + + + @ @ @ % % % % % % % % % % @ % % X % % % X # + + + + + + + ",
"+ + + + . X X X X X X X X X X X X X X X X X . + + + + + o + + + + + + O . X X X X X X X X X X X X X X X X X X + # o + + + + + o ",
"O + + + . .                                 .   + O + + # o + O + + + + + .                     . . . X     . + + + + + o + + + "
};
