/* XPM */
static char *_54105548d5e46d6c97dc7cfdb58d3d8aEP6SqgsFYKihZp4[] = {
/* columns rows colors chars-per-pixel */
"64 64 135 2 ",
"   c #323A4C",
".  c #353E50",
"X  c #374153",
"o  c #394356",
"O  c #3C465A",
"+  c #3E495E",
"@  c #3F4A60",
"#  c #424D63",
"$  c #445067",
"%  c #465269",
"&  c #49556C",
"*  c #4A5771",
"=  c #4C5973",
"-  c #4F5D78",
";  c #505D76",
":  c #515F7A",
">  c #54617C",
",  c #566482",
"<  c #596681",
"1  c #5A6781",
"2  c #596782",
"3  c #5A6782",
"4  c #586580",
"5  c #596785",
"6  c #5A6782",
"7  c #5A6882",
"8  c #5B6984",
"9  c #5A6985",
"0  c #5B6985",
"q  c #5B6A85",
"w  c #596886",
"e  c #5A6987",
"r  c #5D6B87",
"t  c #5A6985",
"y  c #5A6988",
"u  c #5A6989",
"i  c #5A6A89",
"p  c #5B6A89",
"a  c #5B6A8A",
"s  c #5B6B8A",
"d  c #5C6A88",
"f  c #5C6B89",
"g  c #5C6B8A",
"h  c #5C6B8B",
"j  c #5E6C88",
"k  c #5E6D89",
"l  c #5F6D89",
"z  c #5D6C8A",
"x  c #5C6C8B",
"c  c #5D6C8B",
"v  c #5E6D8A",
"b  c #5E6D8B",
"n  c #5D6C8C",
"m  c #5F6E8C",
"M  c #5F6E8E",
"N  c #5F6F8E",
"B  c #5B6A89",
"V  c #606E8B",
"C  c #606F8B",
"Z  c #606F8C",
"A  c #616F8C",
"S  c #616F8D",
"D  c #606F8E",
"F  c #606F8D",
"G  c #61708C",
"H  c #61708D",
"J  c #62708D",
"K  c #62718D",
"L  c #61708F",
"P  c #62718E",
"I  c #62708F",
"U  c #62718E",
"Y  c #607090",
"T  c #617191",
"R  c #627191",
"E  c #637291",
"W  c #637292",
"Q  c #637392",
"!  c #637393",
"~  c #647390",
"^  c #647391",
"/  c #647393",
"(  c #647494",
")  c #657494",
"_  c #657495",
"`  c #657595",
"'  c #667694",
"]  c #677694",
"[  c #677695",
"{  c #667696",
"}  c #667697",
"|  c #677697",
" . c #677797",
".. c #657493",
"X. c #687795",
"o. c #687796",
"O. c #687796",
"+. c #697897",
"@. c #697897",
"#. c #697898",
"$. c #697999",
"%. c #6A7999",
"&. c #6B7A99",
"*. c #6A799A",
"=. c #6A7A9A",
"-. c #6B7B9A",
";. c #6A7A9B",
":. c #6B7B9B",
">. c #6C7B9B",
",. c #6C7C9B",
"<. c #6B7B9C",
"1. c #6B7C9C",
"2. c #6C7C9C",
"3. c #6D7C9C",
"4. c #6D7D9C",
"5. c #6D7D9D",
"6. c #6D7E9E",
"7. c #6E7E9E",
"8. c #6F7F9E",
"9. c #6E7E9F",
"0. c #6F7F9F",
"q. c #6B7B9B",
"w. c #6F7FA0",
"e. c #6F7FA0",
"r. c #6F80A0",
"t. c #7080A0",
"y. c #7080A1",
"u. c #7081A1",
"i. c #7181A2",
"p. c #7182A2",
"a. c #7182A3",
"s. c #7283A4",
"d. c #7383A4",
"f. c #7384A5",
"g. c #7081A1",
/* pixels */
"$ $ # O o                                                   . X O @ # O o X                                                     ",
"$ # # + O o X     X X X . . . . X     X . . X     X X   X X X o + $ # + O X X   X     X X   X X . . . . X     X . . . . . . . . ",
"# $ # # + O O O O O O + O O O O O + + O O + O O O O O O O O O O @ @ $ @ + O O O O @ O O O O O O O O O O O @ O + O O @ O + O O O ",
"$ # $ $ & & & & & & & & & & & & & & & & & & & = = & & & & & & & & $ $ $ % & & & & & & & = & & & & & & & & & & & & & & & & & & & ",
"# $ % & > > > 8 1 1 1 8 > > C > 7 7 1 1 7 7 1 7 > V 8 > V > > > & % % & > > > > 7 7 7 1 1 1 1 1 V > 8 > 8 8 1 1 V > V > > > V > ",
"# # % - > K ] X.X.] ] ] &.X.X.&.] ] ] ] ] ] _ _ ] ] ] ] &.X.K > ; & & ; > K &.t._ ] ] ] _ X._ _ X.X.] ] ] ] ] _ ~ ] ] X.&.X.X.X.",
"# # & > K @.r.u.7.,.,.,.4.&.t.&.q.7.q.7.,.7.1.7.&.,.4.4.0.4.&.V > & & ; C &.t.t.7.7.1.7.7.,.1.7.&.4.4.,.4.7.&.7.3.3.3.4.8.8.8.8.",
"# $ & > K ,.u.p.0.7.&.,.,.,.&.&.*.*.*.*.*.*.*.*.,.,.,.u.t.d.,.V > & & > C &.p.p.7.7.*.*.*.*.*.<.&.,.&.&.&.&.<.*.&.&.4.4.8.d.d.d.",
"# $ & > A 3.e.8.&.| _ _ ( ( ( ( _ _ _ _ _ _ _ _ _ _ | &.u.t.&.K > & & > K t.t.t.&.X.X.~ _ _ ] _ _ _ _ _ _ _ _ _ ^ X._ *.7.u.d.d.",
"# $ & ; V @.8.&._ D f u h n x x h h h h x x n u f h D _ &.4.&.G ; & & > > t.t.&.~ K V V n n f f h h h V f h V V f f D _ | 7.e.e.",
"+ # $ ; > ~ ] J f 5 , , , , , , , , , , , , > , , , 1 0 P P K > = % % = > K ~ K f 1 > > , > > > , , , , , , : 4 , , , f D ^ X.X.",
"O O # % ; > > : ; = * & * * * = - : : ; = = * * & * ; : > > > = % # + % ; > > > ; = & = * * = ; ; : ; ; = * * * * * * ; : > 1 1 ",
"X X O + # $ % % # # @ # @ # # # & & * & # # # # # # # # % & $ @ O O O O # $ & $ # # # @ @ @ @ % % * * % $ # # + + # # $ $ % % & ",
". X o X O O O O O O o o o o O @ # $ $ # # O o o o o O o O O O O O X X o O O O O O O o O o o O @ $ $ $ # + O o o O . O O O + O O ",
"O O O + O O O O O O O + O + + + # # # # + O O O + O O + O O O + O O O O O O O O O O O O O O @ @ @ # $ @ + + O O O O O O O O O O ",
"& & & & % & & & & & & % & % % % $ # # $ $ & & & % & % % & & & & & & & & & & & & % & & & & & % % $ # $ $ % % & & & & & & & & & & ",
"> C > V > > V > 1 1 1 7 7 1 > ; & & $ & ; > 8 > 7 7 > 7 > 8 7 > 1 7 7 7 1 1 1 7 1 1 1 1 V > > : * % % & ; > 7 1 1 1 7 1 1 , 1 1 ",
"X.X.X.X.X.X.X.X.] ] ] _ X.] K 7 = & & ; > K X.&._ ] @.X.X.X.] X.] ] ] ] ] ] ] _ ] ] ] X.X.X.P > = & & = 7 K X.@.@._ ] ] ] ] ] ] ",
"3.&.&.&.4.4.&.&.,.,.7.7.w.7.@.x > & & ; V &.t.t.7.7.,.7.,.,.,.,.q.q.q.q.q.q.,.,.,.,.4.0.u.4.@.V > & & > r @.7.r.7.,.,.,.q.q.q.q.",
"&.&.&.&.&.&.&.&.*.*.*.7.u.u.*.V > & & > V 4.t.d.7.*.*.<.@.*.*.@.*.*.*.@.*.*.*.*.*.*.&.4.u.u.,.V > & & : V *.u.u.7.,.*.@.*.*.@.*.",
"( ^ ^ ^ P ^ ^ ^ ^ Y _ &.7.0.&.V > & & > V ,.u.,.*._ ] Y _ Y ( ^ Q Q Q Q ] Y ] Y ^ Y _ &.7.0.&.V > & & > V @.r.7.*._ Y ] Q ] Q Q ",
"h n n x V x x n x n Y _ *.7.X.f > & & > r X.,.,._ D h i x n f x x x x x x x f n f n K _ *.<.@.x : & & : x @.,.*._ K n x i x x i ",
"u u e u e u u u u e n Y X.*.X.f ; & & ; r K ] ] K f u e u u u e e u u u u e u e u u n Y | *.X.0 ; & & : V ] *. .Y x e u u e u u ",
"e u u e u u u e u f x Y _ _ ^ 0 = & & = > 8 x x x f u u u u u e u e u e e u u u u u n Y _ _ ^ f ; & & : 7 P _ ] Y x u u e u u u ",
"u u u u f u f f u u f D T T h 5 ; & % & = ; > > q i i i u u u f u u u u u u i x u h h h R R h , = & & = , V I I D x u i i i x u ",
"u e e u u u 5 u e u u u h f y : = % $ $ % % = ; > w e i u 5 u u u e e u u e e e 5 5 y h h h y : = & % = : 5 h h u u u u u e e e ",
", 5 , , , , , > , > , , , , : = % $ @ @ + $ $ & - > , , , , , > , , , , , , , > , , , , , , : = % $ # & ; : , , , > , > , > , > ",
"> : : : = = = * * = * = = * * # $ + O O O O O # $ & & = = = = - : : > - = = = = * = * = = * * $ # @ @ # $ * * * = = = * = = = = ",
"= * * & $ # # @ @ # # # @ @ # + o o o X X X o o O @ @ @ @ # # $ & * * & % # # @ # # O # # # # + o O . @ + # # # # # # # # # # @ ",
"% % % # @ O o O o o o O o o o o o o o o X X X o o o O O o O O @ # $ $ # + O o o O O . O . O o . . o o . . O . O . O . O o o o o ",
"$ # # @ @ + O O + O + O + + O O O O O O O O O O O + O O O + + @ # # # # @ @ + O O O O O O + O O + O @ O + O O O + O O O + O + + ",
"# # $ % % % % & & & % & & & & & & & & & & & = & & & & & & % % $ $ # # # % % % & & & & & & & & & & & * & & & & & & & & & % & % % ",
"# # $ & ; > 1 1 8 > 7 7 1 1 5 1 7 7 7 7 7 7 1 7 1 1 1 1 8 > > ; & % $ & ; > 8 8 7 7 1 1 1 1 7 7 1 1 1 1 7 7 7 > 8 8 7 > 7 1 1 1 ",
"# $ & ; 1 K X.X.&.] ] _ ] X.X.X.] ] ] ] ] ] X.] X.] ] @.&.@.K 7 ; & & ; > K ] &._ ] ] ] ] ] ] ] ] ] _ _ ] ] ] ] ] X.] ] @.] ] ] ",
"@ $ & > x @.7.0.0.,.7.*.&.<.<.<.,.,.q.q.,.,.,.,.,.,.,.7.u.7.@.r ; & & > V @.4.u.7.7.,.<.,.,.,.q.,.,.,.,.q.,.,.,.,.,.,.7.7.0.7.7.",
"+ $ & > K &.u.u.0.,.*.*.*.*.<.| *.*.*.@.*.*.*.*.*.*.&.7.u.u.@.V > & & > V &.u.u.7.*.*.*.*.@.*.*.q.@.*.*.*.@.*.*.@.@.q.7.u.u.u.u.",
"# $ & > K @.u.7.@._ ^ Y ( ( ( ( Q ] Y Q ] Y ] Y Y ] _ *.7.r.@.K > & & > V &.0.0.*._ ^ ^ ^ ^ Y _ Q Q ] Y ] Y ] Y ] Y _ *.7.w.u.u.",
"# # & > V @.,.@.] D n n h h h h x x x n x x f x x x n ] q.,.@.x > & & ; r X.,.&.X.D h n h n h h x x x x n n x x x x D ] X.7.e.e.",
"@ $ & > x X.*.*.Y n u e , 5 , , e e u u e u u e u u x Y  .*.] r > % & > r _ @.X.Y x e u u u y y e u e u u e u u u e x Y _ *.7.7.",
"$ $ % - 0 Y _ _ Y f e , , : , , , e e u u u u u e u n Y Q  .Q e ; & & ; e ^ _ _ Y x u u u u y y u e u e u u u e u u x n ] _ *.| ",
"@ $ & = 2 C Q T V h y , ; - - - , 5 u h i u u u u f x D Y Y n , - % & - , n Y Y K n u u f f u f u y y y h h d h u u f n Y Y ] Y ",
"# $ % = > w i i h h , : = * * = > , i h u u u u e e e u n n u > & & % = > 5 x n u u u u u f y y y y y h 5 5 d h e e e u x f n n ",
"+ # $ % * : , , , , : ; % # $ % - > , 5 , , , > > , > > , , > * % $ $ % = > , > , > > , , > , , , 5 , , , , > , , > , , > , , , ",
"O O + # & & = = = * & $ # + @ $ & - - - = = = * = = = = = * & $ # + + # % & * = = = = = * * * ; - : : : = * * * * = * * * * * * ",
"X o o O O @ @ @ # # + O O o o @ % * = & % # @ @ @ @ @ @ @ @ @ O O o o O O @ @ # @ @ @ @ # # # $ & * * % $ # # # @ # # # # @ @ # ",
"X X X o o o O O o O o o . o o O # # $ # @ O o O O O O O O O O o o X X o o o o O o O o O o o O @ # $ $ # @ O o o o o o o o O o o ",
"O O + + O O O O O O + O O O + @ # # # # # + + O O O O O O O O O O O O + O O @ O + O O O + O + @ # # # # @ + O + + O O + + O + O ",
"& & & & & & & & & & & & & & & % # # # # $ % % & & & & & & & & = & & & & & & & & & & & & & % % % $ $ # $ % % % % & & & & % & & & ",
"7 7 7 7 7 7 7 > 8 8 7 1 7 1 > ; & % $ & ; > > 7 7 7 > r > r 7 > 1 1 7 7 1 1 1 1 > 8 > 7 r > > - & % % & ; > 1 1 1 1 1 1 1 1 1 1 ",
" .] ] ] ] ] ] ] ] ] ] @.X.] K 7 = & & ; 7 P ] ] @.] X.X.] ] X.X.] ] ]  ._ ] ] ] &.X.@.X.X.X.P 7 = & & = 7 K X.X.X.X.] ] ] ] ] ] ",
"q.q.,.,.q.q.,.,.,.,.,.7.0.7.@.x > & & ; k ] r.r.r.q.,.,.q.q.,.,.,.,.q.,.,.,.,.,.4.,.,.7.u.r. .r > & & : r @.7.7.7.<.,.,.q.q.,.,.",
"*.*.@.*.*.@.*.*.@.*.,.7.u.u.,.V > & & > C r.r.r.,.q.&.&.*.*.*.*.@.*.@.*.*.*.*.*.@.&.,.,.u.u.q.C > & & > D &.u.u.7.<.*.*.*.*.@.*.",
"Q Q ] Y ( Q ] Y Y ( _ *.7.0.&.V > & & > C @.r.r.*.] Q Q Q Q ] Y Q Q ( Y _ Y _ ^ ^ ] ] *.r.r.q.C : & & > V &.u.7.*._ _ Y Y ] Q Q ",
"x x x x x n x x n n K _ *.,.@.x : & & : k ' r.;.] Z n i x n x x x x n n h f x x x x n ^ ;.1. .r : & & : x @.,.q._ K n x x x x x ",
"u e u e u u e u u u n Y X.*.] r : & & ; q ' ;. .Y n u u u u e u u e u u u e u e e u n Y ' ;.' x ; & & : r ] &._ Y x u e u e u e ",
"e u e u u e u e u u f D _ X.P 7 ; & & ; q P ' ( Z i u u u e u e e u e u e u e u y f x Y ' ' P q ; & & ; 8 P _ ] D x e u e u e u ",
"u i i i i i i q e u u n Y Y x 1 ; % % ; > N Q Y x i i i i i i i u u u u u u u u i i s b Y Y x > - % % - , b T T n x y y y y y y ",
"u i i i i i i i e u u h n n e > = % % = > q s x s i i i q i w s e u u u u u u e w i i s x s w > = % % = > w i i f f y y y y y y ",
", , w , , , , , , 5 , 5 5 5 > - * % % * : > , w , w w , w , > 2 1 5 5 5 , 5 , , w , 2 2 w , , - & % % * ; > , w 5 5 , 5 , , , 5 ",
"- - : : : : : > : > - : - - - = * % @ * = - - - : : : : : - > > > - - - - > : : > - - : : : - * & $ % % * : : : : : : : - , - - ",
"* * * * * = * = = = & = = * * % % @ % % & & = = * * * * = * = * * = * = * = * = = = = = = = * & % % @ & & & = = = * * * = = = = ",
"& & % % & $ $ % % % % % % % % % % % @ % @ % % * % % % % % % % % % % % % & % % $ % % % % % % % % @ % @ % % % % % % % % & % % % % ",
"$ $ $ @ $ $ $ $ $ @ $ $ $ $ # # % @ @ $ % @ $ @ @ % @ % $ $ $ $ @ $ $ $ $ $ $ @ @ % @ $ @ @ @ % % @ % @ $ $ $ % @ % $ # @ $ @ $ ",
"@ $ @ $ @ $ @ $ @ $ # # # # # # @ % % % @ $ $ @ % @ % @ @ $ @ $ @ $ @ $ @ $ @ $ $ @ % % @ $ $ @ $ % @ % @ $ @ @ $ @ $ @ $ $ $ @ "
};
